<?xml version="1.0" encoding="utf-8"?>
<!-- Generator: Adobe Illustrator 28.3.0, SVG Export Plug-In . SVG Version: 6.00 Build 0)  -->
<svg version="1.1" id="Calque_1" xmlns="http://www.w3.org/2000/svg" xmlns:xlink="http://www.w3.org/1999/xlink" x="0px" y="0px"
	 viewBox="0 0 1920 1080" style="enable-background:new 0 0 1920 1080;" xml:space="preserve">
<style type="text/css">
	.st0{fill:#FFFFFF;}
</style>
<g>
	<g>
		<path class="st0" d="M206,52c460,0,920,0,1380,0c0,321.33,0,642.67,0,964c-460,0-920,0-1380,0C206,694.67,206,373.33,206,52z
			 M803.26,614c0.53,1.28,0.95,2.14,1.26,3.03c30.44,89.11,60.82,178.25,91.34,267.34c13.52,39.46,54.86,62.23,95.48,52.12
			c84.27-20.99,168.41-42.48,252.65-63.59c21.97-5.5,41.54-15.23,57.75-31.14c62.19-61.05,124.37-122.1,186.39-183.31
			c26.7-26.35,31.82-63.54,14.33-96.91c-26.89-51.3-53.54-102.73-80.29-154.1c-20.83-40-41.45-80.12-62.6-119.96
			c-9.26-17.43-24.41-26.92-44.29-26.5c-14.61,0.31-29.19,2.39-43.76,3.82c-44.58,4.38-89.16,8.78-133.73,13.25
			c-41.75,4.19-83.5,8.46-125.24,12.72c-30.49,3.11-54.7,17.03-71.69,42.63c-23.1,34.82-45.88,69.85-68.8,104.78
			c-0.94,1.43-1.97,2.81-3.19,4.54c-1.2-1.96-2.01-3.21-2.76-4.51c-21.95-38.07-43.82-76.19-65.87-114.2
			c-9.1-15.68-17.98-31.55-28.04-46.61c-13.8-20.67-33.57-34.67-54.92-46.94c-52.68-30.27-104.98-61.2-157.61-91.56
			c-25.77-14.86-57.11-12.03-79.94,6.89c-10.38,8.61-20.16,17.94-30.19,26.97c-49.27,44.38-98.43,88.88-147.84,133.1
			c-19.61,17.55-25.88,38.55-19.31,63.95c19.3,74.59,38.57,149.18,57.48,223.87c7.77,30.67,25.25,52.61,55.22,63.37
			c66.09,23.72,132.3,47.11,198.54,70.42c24.99,8.8,48.78,5.56,70.2-10.02c31.91-23.21,63.39-47,95.06-70.54
			C773.56,636.03,788.24,625.14,803.26,614z"/>
		<path d="M803.26,614c-15.02,11.15-29.7,22.03-44.37,32.93c-31.67,23.54-63.15,47.33-95.06,70.54
			c-21.42,15.58-45.21,18.81-70.2,10.02c-66.24-23.31-132.45-46.69-198.54-70.42c-29.97-10.76-47.45-32.7-55.22-63.37
			c-18.92-74.68-38.18-149.28-57.48-223.87c-6.57-25.39-0.3-46.4,19.31-63.95c49.41-44.22,98.57-88.72,147.84-133.1
			c10.03-9.03,19.81-18.37,30.19-26.97c22.83-18.93,54.17-21.76,79.94-6.89c52.63,30.36,104.93,61.29,157.61,91.56
			c21.35,12.27,41.12,26.27,54.92,46.94c10.06,15.06,18.94,30.93,28.04,46.61c22.05,38.01,43.92,76.13,65.87,114.2
			c0.75,1.29,1.56,2.55,2.76,4.51c1.22-1.73,2.25-3.11,3.19-4.54c22.93-34.93,45.7-69.97,68.8-104.78
			c16.99-25.61,41.2-39.52,71.69-42.63c41.75-4.26,83.49-8.53,125.24-12.72c44.57-4.47,89.15-8.88,133.73-13.25
			c14.58-1.43,29.15-3.51,43.76-3.82c19.88-0.42,35.03,9.07,44.29,26.5c21.16,39.83,41.77,79.95,62.6,119.96
			c26.75,51.37,53.4,102.8,80.29,154.1c17.49,33.37,12.38,70.56-14.33,96.91c-62.02,61.21-124.2,122.26-186.39,183.31
			c-16.21,15.91-35.78,25.63-57.75,31.14c-84.24,21.11-168.38,42.6-252.65,63.59c-40.63,10.12-81.97-12.66-95.48-52.12
			c-30.52-89.09-60.89-178.22-91.34-267.34C804.21,616.13,803.79,615.27,803.26,614z M1316.28,273c-10.42,1.01-20.86,2.05-31.3,3.04
			c-39.79,3.76-79.59,7.39-119.36,11.3c-45.07,4.43-90.11,9.19-135.18,13.6c-4.8,0.47-8.2,2.49-10.9,6.06
			c-4.77,6.29-5.07,13.07-2.17,20.29c24.47,60.99,48.88,122,73.31,183.01c16.88,42.17,33.74,84.36,50.64,126.52
			c5.56,13.88,17.61,20.75,32.27,18.27c22.15-3.75,44.27-7.64,66.39-11.52c52.77-9.25,105.55-18.52,158.32-27.79
			c28.03-4.93,56.07-9.82,84.08-14.86c8.67-1.56,15.08-7.83,14.95-16.22c-0.08-5.18-2.33-10.67-4.77-15.42
			c-22.45-43.66-45.15-87.21-67.8-130.77c-24.96-47.99-49.89-95.99-74.95-143.93C1342.79,281.16,1331.79,273.57,1316.28,273z
			 M811.18,582.47c-0.45,0.1-0.9,0.21-1.34,0.31c2.31,11.01,3.54,22.39,7.1,32.98c22.74,67.65,45.98,135.13,69.08,202.65
			c7.54,22.03,15.35,43.98,22.67,66.08c2.36,7.13,10.25,8.88,15.39,5.9c2.7-1.56,5.33-3.48,7.44-5.75
			c6.24-6.7,12.23-13.64,18.28-20.52c48.08-54.65,96.21-109.25,144.2-163.99c14.45-16.49,18.13-35.38,9.84-55.81
			c-31.65-77.98-63.53-155.87-95.33-233.78c-8.3-20.33-16.59-40.65-24.91-60.97c-2.69-6.55-7.56-10.59-14.61-11.35
			c-7.03-0.76-12.66,2.05-16.69,7.93c-41.48,60.57-83.02,121.09-124.39,181.72C816.72,544.27,811.49,562.67,811.18,582.47z
			 M291.63,353.46c0.4,2.45,0.75,6.8,1.82,10.97c19.47,75.9,39.03,151.78,58.57,227.67c2.21,8.57,7.93,10.59,15.04,5.16
			c8.73-6.67,17.38-13.45,26.03-20.22c66.49-52,132.96-104.03,199.46-156.01c11.48-8.97,14.67-20.61,9.13-34.12
			c-3.97-9.69-7.93-19.4-11.88-29.1c-25.89-63.49-51.78-126.97-77.68-190.46c-7.1-17.42-16.82-19.57-30.66-7.05
			c-24.7,22.36-49.49,44.61-74.24,66.91c-33.53,30.22-67.08,60.43-100.55,90.71C296.76,326.89,291.92,338.26,291.63,353.46z
			 M854.47,464.97c1.91-2.87,3.23-5.18,4.87-7.23c1.82-2.28,1.75-4.2,0.29-6.73c-29.75-51.44-59.35-102.97-89.12-154.4
			c-12.09-20.9-28.6-37.57-49.47-49.77c-46.14-26.95-92.32-53.83-138.51-80.7c-11.37-6.61-22.75-13.2-34.31-19.47
			c-1.58-0.86-4.92-0.57-6.15,0.57c-1.52,1.42-1.91,4.25-2.36,6.55c-0.19,0.97,0.71,2.16,1.15,3.24
			c30.92,77.07,61.86,154.13,92.76,231.21c3.7,9.24,9.92,16,18.85,20.39c46.91,23.03,93.79,46.1,140.69,69.15
			c13.26,6.52,26.53,13.03,40.06,19.68c2.3-3.5,4.37-6.65,6.73-10.23c-35.84-17.27-71.3-34.35-106.75-51.44
			c0.15-0.37,0.29-0.74,0.44-1.11c7.18,1.95,14.36,3.91,21.55,5.86c-10.82-11.33-22.5-21.28-33.01-32.34
			c-8.12-8.55-17.57-13.13-28.84-15.11c-2.46-0.43-5.09-1.78-6.93-3.48c-20.95-19.31-41.79-38.73-62.54-58.25
			c-1.97-1.86-3.59-4.37-4.64-6.89c-5.58-13.36-10.94-26.82-16.35-40.25c-0.63-1.55-1.11-3.17-1.97-5.66
			c15.96,13.75,31.17,26.72,46.21,39.87c10.16,8.89,21.75,16.46,26.61,30.24c1.14,3.24,4.71,5.61,7.17,8.39
			c0.33-0.26,0.66-0.53,0.99-0.79c-4.63-8.4-8.44-17.05-8.85-26.2c3.26,6.58,6.12,13.9,10.27,20.39
			c7.68,12.03,17.63,21.83,31.83,25.93c13.46,3.89,23.76-3.31,24.8-17.3c1.11-14.79-5.04-27.24-13.47-38.76
			c-2.45-3.34-5.34-6.4-8.31-9.29c-2.82-2.74-6.03-5.09-9.06-7.62c23.13,11.68,36.28,30.11,37.52,56.64
			c1.13-1.31,1.95-2.25,3.65-4.23c4.41,4.88,8.36,9.66,12.79,13.93c1.52,1.46,4.25,2.31,6.44,2.32c7.7,0.03,14,2.77,19.8,8.77
			c-23.45-8.13-30.39-5.79-36.5,11.5c0.3-3.83,1.27-7.52,1.97-11.27c0.26-1.37,0.45-3.36-0.3-4.19c-2.86-3.15-6.12-5.93-9.39-9
			c-9.44,18.93-24.09,18.36-40.75,11.89c3.81,2.74,7.61,5.95,11.73,6.42c7.33,0.83,11.99,5.1,16.82,9.66
			c2.54,2.4,5.05,4.88,7.83,6.99c7.07,5.37,12.19,11.73,14.1,20.8c0.89,4.22,3.8,8.07,6.13,11.89c1.28,2.08,3.26,3.74,5.19,5.89
			c-3.12-7.62-5.96-14.57-8.79-21.51c0.4-0.15,0.79-0.31,1.19-0.46c2.63,4.21,4.99,8.61,7.94,12.58
			c8.23,11.04,17.98,20.27,32.05,23.15c12.16,2.49,21.95-4.76,22.19-17.21c0.13-6.99-1.52-14.13-3.18-21.01
			c-1.06-4.36-3.62-8.37-5.5-12.53c0.36-0.23,0.72-0.45,1.07-0.68c2.97,4.27,5.94,8.55,8.91,12.82c1.03,1.47,1.75,3.47,3.16,4.31
			c6.17,3.66,9.66,9.37,12.97,15.42C843.3,445.74,848.77,455,854.47,464.97z M1048.27,798.09c0.19,0.15,0.37,0.31,0.56,0.46
			c1.54-1.63,3.11-3.23,4.62-4.89c22.67-25.09,45.31-50.22,68.01-75.29c11.99-13.24,26.66-22.16,44.22-25.52
			c46.25-8.86,92.56-17.37,138.84-26.01c54.79-10.23,109.58-20.44,164.35-30.72c6.88-1.29,13.62-2.69,18.68,4.69
			c8.97-12.62,13.17-25.81,13.23-39.69c-5.85,2.64-11.24,6.23-17.13,7.49c-15.77,3.39-31.75,5.79-47.64,8.56
			c-40.49,7.07-80.99,14.1-121.47,21.21c-46.55,8.17-93.08,16.44-139.63,24.56c-17.83,3.11-33.91-5.61-40.46-21.93
			c-41.5-103.48-83-206.95-124.2-310.55c-2.1-5.29-2-11.66-1.95-17.51c0.03-3.2,2.13-6.38,3.48-10.09
			c-21.67,2.72-39.35,11.78-54.12,28.37c20.05-2.66,27.91,1.95,35.28,20c6.73,16.48,13.44,32.96,20.17,49.44
			c32.7,80.1,65.51,160.15,98.03,240.31c9,22.19,6.09,43.36-9.11,61.96c-12.75,15.59-26.47,30.39-39.77,45.53
			c-10.5,11.96-21.02,23.9-31.54,35.84c0.14,0.14,0.27,0.27,0.41,0.41c7.01-6.35,14.02-12.7,21.02-19.04
			c0.34,0.31,0.67,0.62,1.01,0.92c-4.85,6.77-9.71,13.53-14.56,20.3c0.17,0.12,0.35,0.25,0.52,0.37
			c6.06-5.45,12.11-10.9,18.17-16.36c0.33,0.3,0.65,0.6,0.98,0.91c-4.82,6.74-9.64,13.48-14.46,20.21c0.17,0.12,0.34,0.25,0.51,0.37
			c6.29-5.68,12.58-11.36,18.87-17.05c0.29,0.27,0.59,0.55,0.88,0.82C1058.79,783.49,1053.53,790.79,1048.27,798.09z
			 M1481.52,646.59c-1.09-3.39-3.92-4-7.67-3.29c-38.1,7.15-76.22,14.24-114.33,21.33c-60.19,11.2-120.35,22.6-180.6,33.46
			c-19.73,3.56-37.51,10.17-51.28,25.35c-5.93,6.54-11.83,13.11-17.75,19.66c-46.58,51.53-93.16,103.06-139.74,154.59
			c-2.12,2.35-4.27,4.68-6.23,7.16c-3.8,4.8-4,9.99-1.48,15.47c2.42,5.28,6.47,7.31,12.11,6.46c5.58-0.84,11.27-1.24,16.72-2.61
			c80.03-20.1,160-40.46,240.07-60.43c20.4-5.09,40.19-11.22,56.18-25.54c10.29-9.22,19.99-19.11,29.85-28.79
			c42.8-42.02,85.61-84.02,128.3-126.16C1457.75,671.33,1469.42,658.99,1481.52,646.59z M504.35,143.97
			c-0.01,0.72-0.02,1.44-0.03,2.16c6.26,3.54,11.14,8.21,13.91,15.02c30.36,74.62,60.83,149.19,91.19,223.81
			c6.41,15.75,2.13,31.41-11.35,41.96c-70.93,55.52-141.84,111.05-212.93,166.37c-8.16,6.35-15.03,15.44-27.18,15.08
			c-0.26,0.42-0.52,0.84-0.77,1.26c5.71,7.48,11.42,14.97,17.14,22.45c0.51-0.21,1.02-0.43,1.53-0.64
			c-0.35-10.38,5.25-16.95,13.01-22.73c14.55-10.84,28.71-22.2,43.04-33.33c59.17-45.97,118.34-91.94,177.5-137.92
			c9.74-7.57,20.17-8.72,31.37-3.66c8.49,3.83,17.01,7.61,25.53,11.38c1.65,0.73,3.35,1.35,5.03,2.02c0.08-0.21,0.15-0.42,0.23-0.63
			c-4.6-2.61-9.2-5.22-13.81-7.83c0.15-0.29,0.29-0.59,0.44-0.88c9.37,3.6,18.74,7.2,28.11,10.8c0.1-0.21,0.21-0.42,0.31-0.62
			c-7.42-4.09-14.85-8.17-22.27-12.26c0.17-0.38,0.35-0.75,0.52-1.13c9.66,3.7,19.33,7.4,28.99,11.11c0.1-0.21,0.2-0.41,0.3-0.62
			c-10.01-5.47-20.03-10.93-30.04-16.4c0.17-0.38,0.35-0.77,0.52-1.15c9.64,3.69,19.28,7.38,28.92,11.07
			c-14.47-8.03-29.21-15.35-44.03-22.49c-11.19-5.39-18.9-13.78-23.52-25.31c-30.18-75.38-60.41-150.73-90.72-226.06
			c-2.96-7.36-6.25-14.49-0.56-22.34c-0.36-0.47-0.72-0.94-1.08-1.4C523.89,142.01,514.12,142.99,504.35,143.97z M475.81,552.83
			c-0.26-0.25-0.51-0.51-0.77-0.76c-10.09,7.84-20.19,15.68-30.28,23.52c-18.28,14.2-36.61,28.34-54.81,42.63
			c-9.26,7.27-7.8,19.72,2.78,24.83c2.54,1.23,5.16,2.34,7.82,3.28c65.71,23.24,131.45,46.42,197.15,69.7
			c22.26,7.89,42.51,4.09,61.23-9.86c29.37-21.87,58.8-43.68,88.19-65.52c8.85-6.58,17.68-13.19,26.53-19.78
			c-1.85,0.08-3.21,0.88-4.52,1.75c-37.61,25.19-75.08,50.6-112.88,75.49c-19.7,12.97-41.4,15.35-63.6,7.77
			c-28.81-9.84-57.32-20.55-85.95-30.89c-12.47-4.51-24.92-9.05-37.53-13.63c4.08-5.13,4.16-7.44-1.37-9.9
			c-11.34-5.04-23.04-9.27-34.7-13.55c-1.99-0.73-5-0.8-6.63,0.25c-1.23,0.79-1,3.85-1.46,6.11c-8.01-3.13-16.11-6.16-24.08-9.47
			c-5.28-2.2-6.01-7.12-1.72-11.12c12.19-11.36,24.45-22.63,36.68-33.93C449.19,577.44,462.5,565.13,475.81,552.83z M817.37,521.4
			c-1.69-0.86-2.97-1.6-4.31-2.19c-58.39-26-116.79-51.96-175.15-78.03c-8.84-3.95-16.67-2.91-24.25,3.02
			c-23.47,18.38-47.04,36.63-70.58,54.93c-9.8,7.62-19.59,15.25-29.39,22.88c1.79-0.14,3.12-0.97,4.4-1.85
			c32.2-22.23,64.42-44.43,96.58-66.71c8.13-5.63,16.49-6.24,25.5-2.32c48.53,21.13,97.09,42.19,145.64,63.26
			c9.42,4.09,18.85,8.12,28.44,12.25C815.42,524.68,816.32,523.16,817.37,521.4z M613.88,619.86c9.5-0.04,16.94-2.09,23.61-6.61
			c12.48-8.45,14.93-22.95,5.93-34.71c-12.16-15.89-39.78-19.3-55.38-6.82c-12.33,9.86-13.37,24.74-2.39,36.1
			C593.74,616.19,603.96,619.53,613.88,619.86z M947.78,884.29c-0.31-0.28-0.61-0.55-0.92-0.83c2.62-3.83,5.25-7.65,7.87-11.48
			c-11.99,9.6-18.14,26.23-36.78,28.09c10.12,12.13,21.78,20.3,37.29,24.26c-4.54-11.56-2.05-20.52,5.72-28.45
			c4.6-4.7,8.84-9.75,13.24-14.64c-0.18-0.18-0.37-0.36-0.55-0.54c-5.33,4.77-10.66,9.54-15.98,14.31
			c-0.31-0.26-0.61-0.52-0.92-0.78c5.15-7.17,10.3-14.34,15.45-21.52c-0.15-0.09-0.29-0.18-0.44-0.28
			c-6.55,5.96-13.11,11.92-19.66,17.89c-0.29-0.27-0.57-0.54-0.86-0.81c5.1-7.1,10.2-14.19,15.3-21.29
			c-0.16-0.11-0.31-0.22-0.47-0.34C959.97,873.37,953.87,878.83,947.78,884.29z M701.32,488.39c0.21-0.34,0.42-0.69,0.63-1.03
			c-0.53-0.37-1.02-0.85-1.61-1.1c-20.86-8.74-41.65-17.64-62.65-26.02c-3.79-1.51-8.95-2.29-12.55-0.95
			c-6.37,2.38-12.45,6.11-17.92,10.24c-15.9,11.99-31.45,24.47-47.13,36.75c2.14,0.03,3.7-0.79,5.15-1.78
			c15.23-10.43,31.04-20.15,45.47-31.59c11.17-8.85,21.25-10.16,34.38-4.61C663.39,476.04,682.53,481.79,701.32,488.39z M687,661.03
			c-0.23-0.44-0.46-0.87-0.69-1.31c-1.75,0.88-3.54,1.68-5.24,2.64c-17.09,9.67-34.2,19.31-51.23,29.1
			c-5.67,3.26-11.36,4.16-17.7,2.25c-10.2-3.06-20.48-5.88-30.77-8.6c-10.61-2.81-21.29-5.39-31.94-8.06c0.21,1,0.55,1.45,0.99,1.6
			c20.81,6.99,41.58,14.11,62.49,20.82c5.85,1.88,12.06,1.25,17.4-2.13C649.26,685.34,668.11,673.15,687,661.03z M618.26,628.44
			c15.73,2.6,28.54-2.41,38.1-14.87c8.12-10.58,10.32-22.16,3.72-34.52c-6.83-12.8-24.51-23.21-37.94-22.1
			c18.52,5.39,34.14,14.69,34.21,35.81C656.45,616.75,638.84,624.81,618.26,628.44z M598.47,625.26c-1.01-0.43-2.01-0.88-3.02-1.3
			c-18.48-7.67-29.22-25.2-24.06-42.25c0.36-1.18-0.47-3.55-1.45-4.09c-1.34-0.73-3.68-0.86-5.01-0.14
			c-4.35,2.33-5.5,6.58-4.85,11.12c1.77,12.26,7.85,22.09,17.63,29.58C583.76,622.81,590.63,625.4,598.47,625.26z M759.88,512.92
			c-0.17,0.34-0.33,0.67-0.5,1.01c15.84,8.84,31.68,17.69,47.94,26.76c1.04-2.24,1.89-4.07,2.86-6.17
			C793.03,527.15,776.46,520.03,759.88,512.92z M408.57,622.49c0.43,0.46,0.85,0.92,1.28,1.38c15.6-12.01,29.85-25.48,43.21-39.9
			c-0.4-0.43-0.8-0.87-1.21-1.3C437.43,595.94,423,609.21,408.57,622.49z M579.07,566.55c-2.47-1.31-4.28-2.71-4.66-2.39
			c-1.91,1.58-3.44,3.61-5.11,5.49c1.05,0.83,2.66,2.57,3.07,2.32C574.46,570.7,576.24,568.93,579.07,566.55z M799.94,581.3
			c-0.57-0.6-1.14-1.19-1.71-1.79c-2.91,3.16-5.82,6.31-8.73,9.47c0.26,0.26,0.53,0.51,0.79,0.77
			C793.5,586.93,796.72,584.11,799.94,581.3z"/>
		<path class="st0" d="M1316.28,273c15.51,0.56,26.51,8.16,33.52,21.58c25.06,47.94,49.99,95.94,74.95,143.93
			c22.65,43.56,45.34,87.1,67.8,130.77c2.44,4.75,4.69,10.24,4.77,15.42c0.13,8.39-6.28,14.66-14.95,16.22
			c-28.01,5.05-56.05,9.94-84.08,14.86c-52.77,9.28-105.54,18.54-158.32,27.79c-22.12,3.88-44.25,7.77-66.39,11.52
			c-14.66,2.48-26.7-4.4-32.27-18.27c-16.9-42.16-33.76-84.35-50.64-126.52c-24.42-61.01-48.84-122.02-73.31-183.01
			c-2.9-7.22-2.6-14.01,2.17-20.29c2.71-3.56,6.1-5.59,10.9-6.06c45.07-4.41,90.11-9.17,135.18-13.6
			c39.77-3.91,79.57-7.54,119.36-11.3C1295.42,275.05,1305.86,274.02,1316.28,273z M1412.68,497.47c-0.05,0.14-0.1,0.27-0.15,0.41
			c5.57,5.41,11.59,10.45,16.61,16.33c6.24,7.32,9.51,16.15,8.34,25.91c-1.8,15.01-11.44,23.62-24.97,28.25
			c-24.81,8.5-56.47-1.73-72.02-22.93c-14.85-20.23-8.07-44.01,15.43-52.71c6.71-2.48,14.06-3.23,20.57-4.66
			c-12.02-2.69-24.05-0.96-35.14,5.92c-2.82,1.75-4.78,1.78-7.62,0.23c-10.24-5.56-20.59-10.89-31-16.13
			c-2.75-1.38-3.91-2.58-3.02-6.04c1.81-7.05,0.46-13.93-2.57-17.62c-0.43,20.76-10.52,33.77-31.12,37.87
			c-25.97,5.17-48.65-2.07-66.48-21.73c-5.33-5.88-8.36-13.86-12.18-20.43c-1.17,6.64,0.63,13.71,3.96,20.48
			c13.68,27.78,52.55,41.98,82.17,29.91c3.11-1.27,5.43-1.13,8.34,0.43c12.76,6.84,25.61,13.51,38.51,20.07
			c2.52,1.28,3.5,2.7,3.73,5.64c0.37,4.59,1.07,9.35,2.74,13.6c8.81,22.45,26.67,34.02,49.08,39.86c2.27,0.59,4.57,1.04,8.05,1.83
			c-12.5,2.64-36.03-1.47-42.95-7.08c2.17-1.74,4.32-3.45,6.84-5.47c-35.12-15.27-69.67-30.3-104.22-45.33
			c-0.12,0.25-0.24,0.49-0.36,0.74c23.13,13,46.27,25.99,69.85,39.24c-3.54,2.64-6.59,4.91-10,7.46
			c23.36,10.07,46.03,19.84,69.88,30.12c-7.92,2.86-14.57,5.25-21.22,7.65c1.04,0.6,1.97,0.73,2.85,0.58
			c40.64-7.14,81.27-14.32,121.9-21.47c8.5-1.5,9.32-3.1,5.36-10.86c-16.56-32.47-33.12-64.93-49.68-97.4
			c-6.84-13.4-13.68-26.81-20.52-40.21c-0.24,0.1-0.48,0.21-0.72,0.31c6.92,18.53,13.83,37.06,20.75,55.58
			c-0.44,0.33-0.88,0.66-1.32,0.99c-3.92-4.3-7.83-8.61-11.75-12.91c-0.22,0.18-0.43,0.36-0.65,0.54
			c4.22,7.7,8.44,15.39,12.99,23.69C1424.31,504.24,1418.49,500.86,1412.68,497.47z M1172.67,606.43c8.54,0,15.66,0.08,22.79-0.02
			c12.32-0.16,24.26-1.99,34.87-8.82c4.55-2.93,8.54-6.49,10.24-10.71c-6.07,2.58-12.32,6.46-19.09,7.89
			c-22.83,4.82-43.39-1.13-60.91-16.19c-15.99-13.75-18.44-26.54-9.76-44.92c-7.63,3.89-9.62,11.04-12.13,18.68
			c-3.94-7.37-7.44-13.92-10.94-20.47c-0.26,0.13-0.52,0.25-0.78,0.38c2.41,9.78,4.83,19.56,7.24,29.33
			c-0.31,0.12-0.62,0.24-0.93,0.35c-8.87-16.87-17.75-33.75-26.62-50.62c-0.27,1.78,0.19,3.3,0.77,4.76
			c15.28,38.16,30.54,76.33,45.87,114.47c4.22,10.51,9.01,12.96,20.28,10.95c14.09-2.52,28.2-4.93,42.3-7.4
			c36.86-6.46,73.72-12.94,110.58-19.4c-1.14-0.55-2.23-0.59-3.33-0.54c-13.15,0.6-26.29,1.45-39.44,1.71
			c-6.91,0.13-13.92-0.27-20.74-1.34c-8.86-1.38-17.54-3.94-26.39-5.41c-3.56-0.59-7.42,0.05-11.05,0.67
			c-6.38,1.09-12.64,3.14-19.05,3.8C1195.02,614.75,1183.97,613.02,1172.67,606.43z M1239.29,376.17
			c8.54,4.37,16.93,8.38,25.06,12.87c16.25,8.97,33.3,12.56,51.45,7.62c4.34-1.18,7.96-1.29,11.82,0.84
			c1.89,1.04,3.95,1.76,5.94,2.6c10.97,4.62,21.95,9.24,32.93,13.86c0.14-0.26,0.27-0.51,0.41-0.77
			c-11.81-7.76-23.63-15.52-35.32-23.21c3.16-3.8,5.95-7.13,9.32-11.18c-5.87,3.03-10.42,6.32-15.49,7.83
			c-24.52,7.31-46.32,1.12-65.73-14.67c-6.68-5.43-11.7-12.26-14.18-20.72c-2.54-8.66-0.61-16.54,5.09-24.84
			c-8.21,4.15-10.3,11.03-12.73,17.95c-8.18-5.15-15.9-10.05-23.67-14.86c-5.53-3.42-9.15-1.74-10.24,4.64
			c-0.09,0.54-0.24,1.08-0.44,1.98c-10.21-5.64-20.04-10.89-29.67-16.47c-5.29-3.07-10.37-5.23-16.84-3.91
			c-5.99,1.22-12.25,1.12-18.38,1.68c-8.05,0.73-16.09,1.54-25.36,2.44c2.22,1.38,3.29,2.12,4.42,2.74
			c35.64,19.8,71.28,39.6,106.94,59.36C1231.25,385.61,1235.29,384.1,1239.29,376.17z M1304.88,380.54
			c2.33-0.16,5.01-0.18,7.64-0.57c22.56-3.27,30.91-22.09,17.5-39.39c-12.05-15.55-39.11-23.35-57.57-16.59
			c-10.26,3.76-16.1,11.15-16.19,20.53c-0.06,7.05,2.85,12.94,7.44,18.03C1274.59,374.66,1288.57,379.89,1304.88,380.54z
			 M1252.47,481.21c3.01-0.54,7.52-0.97,11.81-2.17c18.48-5.18,24.04-21.89,12.58-37.36c-11.41-15.42-36.53-23.53-55.78-18.01
			c-18.82,5.4-24.45,23.13-11.95,38.19C1219.97,474.92,1234.6,479.97,1252.47,481.21z M1374.07,500.59
			c-2.44,0.47-7.49,0.87-12.15,2.43c-17.23,5.75-22.43,22.43-10.98,36.52c13.58,16.71,31.76,22.45,52.68,19.02
			c9.6-1.57,17.79-6.21,20.77-16.4c3.02-10.33-1.48-18.64-8.5-25.65C1405.11,505.75,1391.71,501.04,1374.07,500.59z M1208.98,587.41
			c2.87-0.66,8.74-1.32,14.07-3.37c13.78-5.3,18.47-19.74,10.9-32.41c-1.44-2.41-3.18-4.72-5.16-6.7
			c-13.44-13.39-29.8-18.39-48.38-15.88c-13.08,1.77-21.67,9.56-22.89,20.19c-0.97,8.4,2.62,15.3,8.21,21.16
			C1176.66,581.87,1190.41,586.85,1208.98,587.41z M1104.61,346.4c-2.92,0.64-8.82,1.19-14.14,3.24
			c-15.36,5.95-19.75,20.3-10.64,34.03c7.6,11.46,18.91,17.54,31.99,20.41c11.31,2.48,22.54,2.37,32.91-3.75
			c9.99-5.9,13.53-16.63,8.7-27.12c-1.71-3.71-4.07-7.35-6.91-10.27C1135.91,352,1122.55,347.2,1104.61,346.4z M1369.49,358.74
			c0.15-0.06,0.3-0.12,0.45-0.17c-0.58-1.3-1.11-2.63-1.76-3.9c-8.44-16.61-16.82-33.25-25.36-49.8
			c-7.78-15.06-16.96-19.63-33.68-17.79c-16.54,1.82-33.13,3.2-49.7,4.76c-12.55,1.18-25.11,2.34-37.67,3.51
			c1.98,0.73,3.95,0.71,5.92,0.74c26.47,0.37,52.95,0.82,79.42,1.09c8.46,0.09,15.67,2.8,21.33,9.11
			c6.11,6.81,12.43,13.47,18.01,20.7C1354.45,337.33,1361.85,348.14,1369.49,358.74z M1158.7,404.82
			c-5.84,2.61-11.68,6.41-18.05,7.85c-24.73,5.59-46.52-1.17-64.78-18.34c-13.76-12.93-15.47-25.35-7.61-42.32
			c-2.29,1.69-4.65,3.45-6.23,5.74c-6.28,9.16-6.3,19.03-2.42,29.04c12.21,31.47,57.56,47.24,86.76,30.21
			C1151.7,413.9,1156.18,409.9,1158.7,404.82z M1092.01,462.94c29.49,12.08,57.98,23.75,86.47,35.42c-0.74-1.55-1.85-2.24-3.01-2.83
			c-27.2-14.03-54.43-28-81.58-42.13c-2.39-1.24-4.59-3.26-6.23-5.42c-5.12-6.7-9.92-13.64-14.85-20.48
			c-0.24,0.12-0.47,0.25-0.71,0.37c6.99,17.42,13.97,34.84,20.96,52.26c0.24-0.09,0.48-0.17,0.72-0.26
			C1093.22,474.62,1092.68,469.38,1092.01,462.94z M1079.82,309.38c0.01-0.15,0.02-0.29,0.03-0.44c-1.56,0-3.13-0.13-4.67,0.02
			c-11.42,1.08-22.82,2.72-34.27,3.21c-13.52,0.57-13.81,4.83-9.17,15.14c3.82,8.5,7.03,17.27,10.52,25.91
			c-0.62-6.72-2.19-13.14-3.26-19.65c-2.07-12.65-1.2-14.1,11.34-17.4C1060.08,313.6,1069.98,311.62,1079.82,309.38z
			 M1282.74,431.77c-9.15-19.39-42.51-27.96-57.47-18.59C1247.27,411.42,1266.23,417.77,1282.74,431.77z M1236.08,537.31
			c0.5,0.85,1.05,1.68,1.48,2.56c2.61,5.29,5.08,10.65,7.85,15.86c0.75,1.41,2.33,2.38,3.53,3.55c0.24-1.74,1.16-3.74,0.6-5.16
			C1246.81,547.27,1242.58,541.43,1236.08,537.31z"/>
		<path class="st0" d="M811.18,582.47c0.31-19.8,5.55-38.2,16.73-54.58c41.37-60.64,82.91-121.16,124.39-181.72
			c4.03-5.88,9.66-8.69,16.69-7.93c7.05,0.76,11.92,4.79,14.61,11.35c8.33,20.31,16.62,40.64,24.91,60.97
			c31.8,77.92,63.69,155.8,95.33,233.78c8.29,20.43,4.61,39.32-9.84,55.81c-47.98,54.74-96.11,109.34-144.2,163.99
			c-6.05,6.88-12.04,13.82-18.28,20.52c-2.11,2.27-4.75,4.18-7.44,5.75c-5.14,2.98-13.03,1.23-15.39-5.9
			c-7.32-22.11-15.13-44.05-22.67-66.08c-23.11-67.52-46.34-135-69.08-202.65c-3.56-10.59-4.79-21.97-7.1-32.98
			C810.28,582.68,810.73,582.57,811.18,582.47z M855.68,693.4c-0.27,0.18-0.54,0.37-0.82,0.55c0.26,0.92,0.48,1.86,0.79,2.77
			c15.92,46.61,31.84,93.21,47.77,139.81c4.04,11.81,8.04,23.63,12.21,35.39c1.89,5.34,4.2,5.76,8.27,1.87
			c0.84-0.8,1.6-1.69,2.37-2.57c8.12-9.27,16.22-18.57,24.36-27.82c44.13-50.15,88.23-100.33,132.43-150.41
			c12.67-14.36,15.13-30.16,7.86-47.73c-6.04-14.6-11.94-29.26-17.92-43.88c-3.39-8.28-6.83-16.53-10.25-24.8
			c-0.23,0.09-0.46,0.17-0.69,0.26c2.81,10.48,5.61,20.95,8.49,31.69c-12.95,3.06-25.1,5.93-37.25,8.8
			c0.05,0.35,0.11,0.69,0.16,1.04c12.91-0.82,25.82-1.63,39.07-2.47c0.78,2.98,1.47,5.62,2.3,8.79
			c-27.05,2.25-53.52,4.45-80.55,6.69c0.43-17.56-1.28-34.11-10.66-49.28c-0.12,0.73-0.3,1.08-0.21,1.33
			c7.35,19.82,6.76,39.87,1.34,59.91c-3.26,12.06-8.36,23.27-18.87,30.96c-10.44,7.64-23.21,6.68-32.29-2.41
			c-10.72-10.72-13.51-24.56-14.39-38.89c-0.98-15.91,1.37-31.41,7.18-46.36c-7.22,10.75-11.11,22.64-12.79,35.34
			c-1.67,12.66-1,25.17,2.68,37.89c-21.12,1.07-41.66,2.11-62.86,3.18c2.21,5.74,4.38,10.76,6.06,15.93
			c0.97,2.97,2.49,3.62,5.45,3.46c19.46-1.07,38.93-2.05,58.41-2.73c2.85-0.1,6.18,0.89,8.57,2.47c9.42,6.25,19.48,8.11,29.92,4
			c6.25-2.46,12.27-6.02,17.65-10.07c5.64-4.24,10.39-9.66,15.52-14.56c0.25,0.11,0.5,0.21,0.76,0.32
			c-2.71,5.91-5.41,11.81-8.26,18.03c31.98-2.59,63.62-5.16,96.33-7.82c-1.79,3.76-3.23,6.69-4.58,9.67
			c-1.57,3.45-3.82,5.03-7.97,5.39c-23.55,2.05-47.07,4.54-70.59,6.93c-1.51,0.15-2.98,0.67-5.26,1.2
			c8.77,5.91,17.02,10.94,24.66,16.77c5.22,3.98,10.39,4.92,16.62,3.69c5.88-1.16,11.92-1.57,19.03-2.44
			c-2.09,2.57-3.26,4.15-4.58,5.6c-14.71,16.12-29.35,32.3-44.26,48.23c-1.94,2.08-5.13,3.38-7.98,4.14
			c-5.9,1.58-13.73-0.17-13.81,10.02c-0.82-9.65-0.94-18.71-1.96-27.66c-1.05-9.25-4.02-18.02-9.5-25.76
			c0.09,1.15,0.54,2.18,0.85,3.25c7.77,26.46,5.86,52.02-7.54,76.34c-4.02,7.29-9.79,13.04-17.91,15.9
			c-12.16,4.28-24.78-1.4-31.84-14.82c-9.02-17.13-9.46-35.49-6.46-54.07c1.14-7.07,3.29-13.97,5.28-22.15
			c-9.16,14.71-12.24,29.96-14.31,45.76c-6.33-16.33-12.67-32.66-19-48.98c-0.26,0.09-0.52,0.18-0.79,0.27
			c3.04,14.44,6.07,28.89,9.11,43.33c-0.34,0.09-0.67,0.19-1.01,0.28C878.56,746.45,867.12,719.92,855.68,693.4z M925.23,436.2
			c-0.9,1.57-1.87,3.1-2.68,4.71c-6.41,12.7-9.73,26.19-9.66,40.41c0.02,3.43-0.87,4.98-4.38,5.75c-7.63,1.66-15.15,3.85-22.72,5.81
			c-5.08,1.31-10.16,2.58-16.2,4.11c4.43-9.1,8.41-17.25,12.38-25.41c-17.38,23.35-34.03,47.05-50.24,71.04
			c-8.07,11.94-11.2,25.53-10.44,39.91c1.13,21.27,9.42,40.63,16.32,60.39c0.21-1.12,0.09-2.19-0.04-3.25
			c-1.44-11.54-2.85-23.09-4.33-34.63c-0.42-3.23,0.93-4.68,4.04-5.63c14-4.3,27.92-8.84,41.86-13.32
			c10.68-3.43,21.34-6.91,32.01-10.36c-0.09-0.36-0.18-0.72-0.27-1.08c-25.38,4.67-50.77,9.34-76.27,14.04
			c0.01-8.9,0-8.94,7.15-10.36c15.83-3.14,31.66-6.23,47.49-9.36c22.04-4.36,44.08-8.69,66.1-13.13c7.97-1.61,10.14-7.08,5.77-13.92
			c-1.13-1.77-2.12-3.63-3.66-6.27c23.24-6.56,46.69-8.13,69.85-13.02c-2.95-6.76-5.89-13.09-8.45-19.57
			c-1.2-3.04-2.78-3.87-5.99-3.36c-7.48,1.19-15.02,1.96-23.02,2.96c6.46-23.77,6.6-46.48-4.31-68.39
			c-0.43,0.77-0.61,1.57-0.41,2.26c3.84,13.16,4.56,26.52,2.71,40.06c-1.9,13.86-5.62,27.07-14.17,38.46
			c-13.54,18.03-35.59,16.49-46.53-3.22c-5.29-9.53-7.44-19.92-7.98-30.66C918.41,465.9,920.41,450.99,925.23,436.2z M929.51,630.49
			c-0.05,10.51,2.93,22.73,8.53,30.75c6.21,8.9,16.23,10.31,23.9,2.68c3.68-3.66,6.78-8.29,8.95-13.02
			c6.73-14.71,8.35-30.37,6.79-46.34c-0.86-8.81-2.77-17.47-8.13-24.84c-6.46-8.88-16.44-10.09-23.94-2.27
			c-3.93,4.09-7.11,9.23-9.48,14.42C931.16,602.76,929.69,614.5,929.51,630.49z M968.13,759.71c0-2.33,0.18-4.68-0.03-6.99
			c-1-10.69-2.6-21.26-10.13-29.65c-5.95-6.63-14.14-7.37-20.87-1.55c-3.31,2.87-6.22,6.58-8.28,10.45
			c-8.42,15.8-10.6,32.94-8.29,50.38c1.06,8.04,3.66,16.31,7.47,23.45c5.57,10.42,16.66,11.13,25.09,2.8
			c1.18-1.16,2.25-2.46,3.19-3.82C965.69,791.21,967.94,775.72,968.13,759.71z M929.51,475.56c0.11,2.36-0.3,5.83,0.54,8.98
			c2.15,8.11,3.73,16.68,7.61,23.95c5.88,11.03,17.73,11.62,26.02,2.17c2.81-3.21,5.28-6.94,7.01-10.82
			c6.81-15.24,9.09-31.38,6.71-47.8c-1.12-7.73-3.52-15.68-7.17-22.55c-5.82-10.94-17.15-11.83-25.66-2.86
			c-2.48,2.62-4.61,5.72-6.3,8.91C931.79,447.72,929.82,460.98,929.51,475.56z M1039.3,521.77c0.3-0.18,0.61-0.36,0.91-0.54
			c-1.41-3.49-2.81-6.99-4.24-10.48c-20.61-50.48-41.17-100.98-61.99-151.38c-1.03-2.49-4.01-5.3-6.47-5.72
			c-2.13-0.37-5.64,1.85-7.11,3.94c-21.76,30.87-43.29,61.91-64.85,92.93c-0.67,0.97-1.12,2.09-1.67,3.15
			c1.55-0.53,2.45-1.46,3.27-2.45c21.32-26.22,42.62-52.45,63.93-78.68c4.08-5.02,5.43-4.91,8.15,0.86
			c13.22,27.97,26.42,55.95,39.63,83.93C1019,478.81,1029.15,500.29,1039.3,521.77z"/>
		<path class="st0" d="M291.63,353.46c0.29-15.2,5.13-26.57,15.04-35.53c33.48-30.28,67.03-60.49,100.55-90.71
			c24.74-22.31,49.54-44.56,74.24-66.91c13.84-12.53,23.56-10.37,30.66,7.05c25.9,63.48,51.78,126.97,77.68,190.46
			c3.96,9.7,7.91,19.41,11.88,29.1c5.54,13.51,2.35,25.14-9.13,34.12c-66.5,51.98-132.97,104.01-199.46,156.01
			c-8.65,6.77-17.3,13.54-26.03,20.22c-7.11,5.43-12.84,3.41-15.04-5.16c-19.54-75.89-39.1-151.77-58.57-227.67
			C292.38,360.26,292.03,355.91,291.63,353.46z M374.31,568.06c1.61-8.93,3.02-17.05,4.57-25.15c0.65-3.4,0.49-5.95-2.5-8.7
			c-6.05-5.55-8.6-13.08-10.67-22.26c2.25,2.41,3.45,3.7,5.61,6.02c-6.22-16.98-6.84-21.14-5.22-32.97
			c2.44-17.78,15.55-32.61,32.7-35.12c6.89-1.01,14.21,0.96,21.78,1.62c-0.19,0.56,0.08-0.04,0.21-0.66
			c4.83-24.31,9.7-48.61,14.43-72.94c0.82-4.2,1.73-8.56,1.41-12.76c-0.78-10.28-2.27-20.5-3.46-30.75
			c-1.5-12.92-2.98-25.84-4.47-38.76c-0.31-0.02-0.62-0.05-0.94-0.07c-9.27,45.93-18.54,91.85-27.81,137.78
			c-1.21-8.11-2.1-16.02-3.66-23.8c-0.79-3.95-2.85-7.6-7.84-7.8c-5.12-0.2-9.32,1.62-11.38,6.44c-1.76,4.1-3.24,8.42-4.13,12.78
			c-5.48,26.89-10.78,53.81-16.1,80.73c-1.59,8.02-3.06,16.07-4.83,25.46c-4.6-8.26-8.47-15.23-12.34-22.19
			c1.7,9.98,4.2,19.6,6.69,29.22c3.84,14.81,7.68,29.62,11.53,44.43c1.54,5.92,5.08,8.22,9.18,5.2c10.56-7.76,20.77-16,31.12-24.04
			c-0.19-0.36-0.38-0.72-0.57-1.08C390.16,561.71,382.7,564.7,374.31,568.06z M397.77,257.58c0.28,0.17,0.55,0.34,0.83,0.52
			c1.06-1.15,2.13-2.29,3.17-3.45c7.89-8.81,15.8-17.6,23.65-26.44c11.2-12.61,23.88-22.31,42.2-21.05
			c-0.05-0.47-0.11-0.94-0.16-1.41c-4.46-0.4-8.91-0.81-13.32-1.2c10.91-7.26,33.01-5.11,42.18,9.29c-2.97-1.34-5.74-2.59-8.52-3.83
			c0.55-0.44,1.1-0.89,1.65-1.33c4.04,5.07,8.03,10.18,12.12,15.21c10.66,13.12,17.5,28.21,22.94,44.05
			c0.57,1.65,1.36,4.14,2.56,4.49c5.75,1.69,11.67,2.78,18.31,4.25c-8.4-20.57-16.42-40.1-24.3-59.69
			c-1.13-2.82-2.41-4.13-5.67-4.94c-3-0.74-6.4-3.47-7.81-6.24c-2.74-5.41-4.45-11.39-6.11-17.27c-1.06-3.77-0.11-6.96,5-6.75
			c-0.27-0.91-0.42-1.56-0.67-2.17c-1.56-3.85-3.03-7.75-4.75-11.53c-2.78-6.11-7.61-7.17-12.57-2.73
			c-34.73,31.12-69.43,62.28-104.13,93.43c-6.86,6.16-13.7,12.34-20.55,18.52c0.27,0.32,0.54,0.65,0.8,0.97
			c11.82-9.37,23.64-18.74,35.46-28.11c0.2,0.16,0.4,0.33,0.6,0.49C399.73,252.97,398.75,255.28,397.77,257.58z M494.93,257.04
			c-0.89-3.19-1.81-9.58-4.41-15.19c-9.28-20.07-32.3-23.66-46.52-7.61c-12.7,14.33-11.8,39.92,1.87,53.46
			c11.51,11.4,29.27,10.6,39.72-1.79C491.87,278.46,494.49,269.7,494.93,257.04z M546.15,400.43c-0.03-12.25-2.48-20.06-7.49-27.08
			c-10.14-14.19-28.9-16-41.25-3.97c-14.57,14.19-14.59,41.38-0.04,55.64c9.99,9.79,24.75,10.72,35.39,2.08
			C542.21,419.41,545.89,409.06,546.15,400.43z M433.84,493.95c-0.13-10-2.64-18.61-8.62-26.05c-9.64-11.99-25.57-13.93-37.77-4.58
			c-16.8,12.87-17.89,42.6-2.12,57.87c10.75,10.41,26.5,10.44,37.23,0.08C430.44,513.64,433.51,504.05,433.84,493.95z
			 M327.44,351.64c-0.24,9.77,2.11,18.76,8.25,26.55c10.73,13.61,28.94,14.6,41.02,2.26c14.01-14.31,13.8-40.75-0.45-54.87
			c-10.96-10.86-27.59-10.75-38.34,0.33C331,333.06,327.82,341.78,327.44,351.64z M465.08,354.95c0.21,0.03,0.43,0.06,0.64,0.1
			c0.14,1.47-0.05,3.07,0.48,4.37c1.06,2.61,1.92,6.41,3.93,7.29c3.71,1.62,7.7-0.22,9.82-3.9c1.8-3.13,3.53-6.56,4.15-10.05
			c2.87-16.21,5.23-32.51,8.05-48.73c0.47-2.7,1.73-5.73,3.6-7.66c17.59-18.09,18.48-48.37,1.48-66.23
			c-3.2-3.36-7.37-5.81-11.08-8.68c-0.25,0.36-0.51,0.71-0.76,1.07c14.3,12.4,20.13,26.37,17.41,44.73
			c-2.46,16.64-11.14,29.1-27.5,35.02c-9.03,3.27-17.96,1.89-26.61-2.17c-0.16,0.51-0.32,1.02-0.48,1.53
			c6,2.38,11.99,4.77,18.29,7.27c-8.83,46.16-17.71,92.59-26.59,139.01c0.51,0.18,1.02,0.36,1.54,0.54
			c3.46-8.18,7.97-16.1,10.14-24.61c3.65-14.33,5.8-29.03,8.59-43.58C461.79,371.82,463.44,363.39,465.08,354.95z M557.93,433.45
			c0.17,0.22,0.34,0.44,0.51,0.66c1.05-0.68,2.16-1.29,3.14-2.06c8.14-6.34,16.28-12.67,24.37-19.07c8.08-6.4,9.77-12.91,5.91-22.41
			c-6.95-17.1-13.91-34.2-20.89-51.29c-3.36-8.23-6.77-16.45-10.15-24.67c-0.24,0.08-0.48,0.17-0.72,0.25
			c4.76,17.72,9.53,35.44,14.29,53.16c-0.32,0.11-0.65,0.22-0.97,0.33c-5.27-7.38-10.55-14.76-15.82-22.14
			c-0.07,1.8,0.56,3.26,1.07,4.77c5.22,15.4,10.51,30.78,15.57,46.24c1.91,5.85,0.95,11.48-2.67,16.61
			C566.97,420.33,562.47,426.9,557.93,433.45z M387.67,325.27c10.03,16.83,11.42,34.03,2.08,51.36
			c-11.69,21.69-37.31,27.33-55.44,12.02c-0.28-0.23-0.73-0.25-1.41-0.47c5.95,10.09,19.92,15.76,32.88,13.61
			c19.77-3.27,34.94-21.77,35.28-43.2C401.26,345.6,397.56,334.11,387.67,325.27z M546.57,369.11c10.25,16.9,11.58,34.19,2.19,51.69
			c-10.4,19.37-33.83,26.84-52.27,14.12c-0.61-0.42-1.33-0.7-2-1.05c1.43,2.75,3.41,4.87,5.74,6.44c13.84,9.3,32.71,7.2,45.42-4.94
			C564.58,417.29,565.13,384.78,546.57,369.11z M435.29,467.06c0.54,1.11,1.07,2.22,1.63,3.32c6.36,12.29,7.32,25.03,3.13,38.17
			c-6.68,20.97-28.61,35.47-50.7,25.46c-0.29-0.13-0.78,0.18-1.79,0.45c8.93,6.84,18.41,8.59,28.59,6.05
			c20.19-5.03,34.34-26.72,31.56-47.75C446.41,482.83,443.26,473.84,435.29,467.06z M312.06,402.6c0.19-0.12,0.38-0.24,0.57-0.37
			c-1.71-14.51-3.31-29.03-5.17-43.52c-1.24-9.62-0.01-18.45,6.06-26.42c6.71-8.82,13.11-17.88,19.64-26.84
			c-7.75,6.36-15.56,12.81-22.22,20.28c-8.23,9.24-12.02,20.78-9.74,32.94C303.97,373.47,308.37,387.97,312.06,402.6z M433.55,283.7
			c-6.35-14.41-7.17-28.01-1.41-41.57c5.91-13.93,16.35-22.59,32.74-25.54c-16.03-2.48-30.29,5.62-37.49,20.19
			C419.61,252.49,421.88,272.53,433.55,283.7z M478.97,408.94c1.03-10.63,2.13-22.07,3.2-33.1
			C474.94,385.52,473.64,401.05,478.97,408.94z M319.36,362.43c1.39-10.07,2.85-20.62,4.29-30.97
			C316.82,337.58,314.7,353.57,319.36,362.43z"/>
		<path class="st0" d="M854.47,464.97c-5.7-9.97-11.17-19.23-16.33-28.66c-3.31-6.05-6.8-11.75-12.97-15.42
			c-1.41-0.84-2.14-2.83-3.16-4.31c-2.97-4.27-5.94-8.55-8.91-12.82c-0.36,0.23-0.72,0.45-1.07,0.68c1.89,4.16,4.45,8.16,5.5,12.53
			c1.66,6.87,3.31,14.01,3.18,21.01c-0.24,12.44-10.03,19.7-22.19,17.21c-14.08-2.88-23.82-12.11-32.05-23.15
			c-2.95-3.96-5.31-8.37-7.94-12.58c-0.4,0.15-0.79,0.31-1.19,0.46c2.84,6.95,5.68,13.89,8.79,21.51c-1.93-2.15-3.92-3.8-5.19-5.89
			c-2.33-3.81-5.24-7.67-6.13-11.89c-1.91-9.07-7.04-15.43-14.1-20.8c-2.78-2.11-5.29-4.58-7.83-6.99
			c-4.83-4.57-9.49-8.83-16.82-9.66c-4.12-0.47-7.92-3.68-11.73-6.42c16.66,6.47,31.31,7.04,40.75-11.89c3.26,3.06,6.52,5.85,9.39,9
			c0.75,0.83,0.56,2.82,0.3,4.19c-0.7,3.74-1.67,7.43-1.97,11.27c6.11-17.29,13.04-19.63,36.5-11.5c-5.8-5.99-12.1-8.73-19.8-8.77
			c-2.18-0.01-4.92-0.86-6.44-2.32c-4.43-4.27-8.38-9.05-12.79-13.93c-1.71,1.98-2.52,2.92-3.65,4.23
			c-1.24-26.53-14.39-44.96-37.52-56.64c3.04,2.52,6.24,4.87,9.06,7.62c2.98,2.89,5.87,5.95,8.31,9.29
			c8.43,11.52,14.58,23.97,13.47,38.76c-1.05,13.99-11.34,21.19-24.8,17.3c-14.2-4.1-24.15-13.9-31.83-25.93
			c-4.15-6.49-7.01-13.81-10.27-20.39c0.41,9.15,4.22,17.81,8.85,26.2c-0.33,0.26-0.66,0.53-0.99,0.79
			c-2.45-2.77-6.03-5.15-7.17-8.39c-4.86-13.77-16.44-21.35-26.61-30.24c-15.04-13.15-30.25-26.12-46.21-39.87
			c0.86,2.49,1.35,4.1,1.97,5.66c5.41,13.43,10.77,26.89,16.35,40.25c1.05,2.52,2.67,5.03,4.64,6.89
			c20.75,19.52,41.6,38.94,62.54,58.25c1.84,1.7,4.48,3.04,6.93,3.48c11.27,1.98,20.72,6.56,28.84,15.11
			c10.51,11.06,22.19,21.01,33.01,32.34c-7.18-1.95-14.36-3.91-21.55-5.86c-0.15,0.37-0.29,0.74-0.44,1.11
			c35.46,17.09,70.91,34.17,106.75,51.44c-2.35,3.58-4.42,6.73-6.73,10.23c-13.53-6.65-26.8-13.16-40.06-19.68
			c-46.9-23.05-93.78-46.12-140.69-69.15c-8.93-4.39-15.15-11.15-18.85-20.39c-30.9-77.08-61.84-154.14-92.76-231.21
			c-0.43-1.08-1.34-2.27-1.15-3.24c0.44-2.3,0.83-5.13,2.36-6.55c1.23-1.15,4.57-1.43,6.15-0.57c11.55,6.27,22.94,12.85,34.31,19.47
			c46.19,26.87,92.37,53.75,138.51,80.7c20.87,12.19,37.38,28.87,49.47,49.77c29.77,51.43,59.37,102.96,89.12,154.4
			c1.46,2.53,1.53,4.46-0.29,6.73C857.7,459.79,856.38,462.09,854.47,464.97z M615.23,276.16c-4.89-7.33-10.16-14.2-14.3-21.7
			c-5.37-9.73-8.61-20.24-6.78-31.63c1.7-10.6,9.4-16.58,19.9-14.76c4.81,0.83,9.73,2.63,13.9,5.15
			c15.53,9.39,25.95,23.17,32.32,40.03c3.09,8.19,4.99,16.65,2.5,25.4c-0.81,2.86-2.32,5.52-3.65,8.6
			c15.11-6.6,15.71-23.79,1.82-53.82c6.44,5.39,10.85,10.92,13.66,17.77c0.64,1.56,1.73,3.54,3.11,4.1c7.84,3.14,11.6,9.33,14,16.94
			c1.35,4.27,3.07,8.48,5.14,12.44c1.13,2.15,3.02,4.36,5.13,5.47c11.79,6.21,22.41,13.89,30.64,24.41
			c4.22,5.4,7.67,11.4,11.47,17.13c0.26-0.05,0.52-0.1,0.77-0.16c-1.4-5.43-2.8-10.85-4.36-16.87
			c12.26,10.29,24.1,20.23,37.08,31.12c-1.48-4.23-2.44-6.96-3.39-9.69c0.24-0.12,0.48-0.25,0.72-0.37
			c6.47,8.76,12.93,17.51,19.4,26.27c0.63-1.15,0.47-1.75,0.17-2.28c-11.26-19.83-22.97-39.42-33.66-59.55
			c-7.17-13.5-17.51-23.14-30.38-30.82c-26.88-16.03-53.57-32.37-80.34-48.58c-13.93-8.43-27.87-16.85-41.81-25.28
			c-0.03,0.53-0.06,1.06-0.08,1.59c-3,0.45-6.53,2.13-8.9,1.1c-5.4-2.33-10.43-5.72-15.21-9.21c-2.8-2.05-3.66-5.13,0.48-7.83
			c-7.35-4.47-14.24-8.8-21.29-12.84c-1.52-0.87-3.61-0.74-5.44-1.08c0,1.84-0.56,3.89,0.07,5.47
			c11.55,28.9,23.22,57.75,34.93,86.58c0.6,1.47,1.52,3.11,2.78,3.97C602.05,267.66,608.63,271.85,615.23,276.16z M734.73,352.96
			c-1.25-3.61-3.05-10.9-6.23-17.53c-5.71-11.87-13.92-21.9-25.51-28.63c-6.22-3.61-13.03-6.22-19.64-1.36
			c-6.37,4.68-6.49,11.89-4.71,18.65c1.72,6.52,4.03,13.09,7.33,18.94c6.8,12.05,15.55,22.59,29.04,27.61
			C726.41,374.88,734.53,368.93,734.73,352.96z M657.13,264.75c-1.37-3.74-3.39-11.48-6.91-18.48c-6.23-12.4-15.03-22.86-27.9-28.9
			c-13.28-6.24-23.93,1.12-21.61,15.43c1.28,7.85,4.29,15.73,8.03,22.79c6.16,11.63,14.91,21.29,27.34,26.7
			C648.01,287.5,657.01,281.64,657.13,264.75z M815.7,434.05c-0.06-0.53-0.12-1.87-0.35-3.17c-2.91-16.84-11.89-30.16-24.65-40.98
			c-3.84-3.25-8.54-5.94-13.3-7.56c-10.43-3.56-18.24,2.4-18.47,13.45c-0.04,1.97,0.16,3.99,0.54,5.93
			c3.24,16.54,12.12,29.71,24.85,40.34c3.38,2.82,7.39,5.22,11.5,6.78C807.44,453.26,815.71,447.26,815.7,434.05z M704.19,421.81
			c0.13-0.22,0.27-0.43,0.4-0.65c-24.32-22.71-48.65-45.43-72.97-68.14c4.14,12.55,8.76,24.8,14.7,36.37
			c2.15,4.19,7.09,7.41,11.42,9.92c7.17,4.15,14.88,7.36,22.36,10.96C688.13,414.12,696.16,417.96,704.19,421.81z"/>
		<path class="st0" d="M1048.27,798.09c5.26-7.3,10.52-14.6,15.79-21.89c-0.29-0.27-0.59-0.55-0.88-0.82
			c-6.29,5.68-12.58,11.36-18.87,17.05c-0.17-0.12-0.34-0.25-0.51-0.37c4.82-6.74,9.64-13.48,14.46-20.21
			c-0.33-0.3-0.65-0.6-0.98-0.91c-6.06,5.45-12.11,10.9-18.17,16.36c-0.17-0.12-0.35-0.25-0.52-0.37
			c4.85-6.77,9.71-13.53,14.56-20.3c-0.34-0.31-0.67-0.62-1.01-0.92c-7.01,6.35-14.02,12.7-21.02,19.04
			c-0.14-0.14-0.27-0.27-0.41-0.41c10.51-11.95,21.03-23.89,31.54-35.84c13.3-15.14,27.02-29.94,39.77-45.53
			c15.2-18.59,18.11-39.77,9.11-61.96c-32.52-80.17-65.33-160.22-98.03-240.31c-6.73-16.48-13.44-32.96-20.17-49.44
			c-7.37-18.05-15.23-22.66-35.28-20c14.77-16.59,32.45-25.65,54.12-28.37c-1.35,3.7-3.45,6.88-3.48,10.09
			c-0.06,5.86-0.16,12.22,1.95,17.51c41.2,103.59,82.7,207.07,124.2,310.55c6.55,16.32,22.62,25.04,40.46,21.93
			c46.56-8.12,93.09-16.4,139.63-24.56c40.48-7.1,80.98-14.14,121.47-21.21c15.9-2.78,31.88-5.17,47.64-8.56
			c5.89-1.26,11.27-4.86,17.13-7.49c-0.06,13.89-4.26,27.08-13.23,39.69c-5.06-7.39-11.8-5.99-18.68-4.69
			c-54.78,10.28-109.57,20.49-164.35,30.72c-46.29,8.64-92.6,17.15-138.84,26.01c-17.55,3.36-32.23,12.28-44.22,25.52
			c-22.7,25.07-45.34,50.19-68.01,75.29c-1.5,1.66-3.08,3.26-4.62,4.89C1048.64,798.39,1048.46,798.24,1048.27,798.09z
			 M1006.35,351.91c30.37,89.7,65.42,177.53,105.39,263.39C1081.45,525.57,1046.23,437.81,1006.35,351.91z M1163.19,678.78
			c77.35-8.78,153.8-22.57,229.33-41.47C1315.16,646.04,1238.73,659.93,1163.19,678.78z M1483.3,619.88
			c-17.34-1.02-57,6.58-65.46,12.46C1440.73,631.44,1462.36,627.48,1483.3,619.88z"/>
		<path class="st0" d="M1481.52,646.59c-12.1,12.4-23.77,24.74-35.85,36.66c-42.69,42.13-85.5,84.13-128.3,126.16
			c-9.87,9.69-19.56,19.57-29.85,28.79c-15.99,14.32-35.78,20.45-56.18,25.54c-80.07,19.97-160.03,40.33-240.07,60.43
			c-5.45,1.37-11.14,1.77-16.72,2.61c-5.63,0.85-9.68-1.18-12.11-6.46c-2.52-5.49-2.32-10.67,1.48-15.47
			c1.96-2.48,4.11-4.82,6.23-7.16c46.58-51.54,93.16-103.06,139.74-154.59c5.92-6.55,11.82-13.12,17.75-19.66
			c13.76-15.18,31.55-21.79,51.28-25.35c60.25-10.86,120.41-22.26,180.6-33.46c38.11-7.09,76.23-14.18,114.33-21.33
			C1477.61,642.59,1480.43,643.2,1481.52,646.59z M1245.11,700.72c-0.16-0.28-0.31-0.56-0.47-0.83c-0.65,0.04-1.3,0.02-1.94,0.14
			c-22.24,4.16-44.42,8.64-66.73,12.4c-16.68,2.82-30.19,10.42-41.37,23.06c-18.42,20.84-37.23,41.33-55.88,61.97
			c-34.39,38.06-68.79,76.13-103.17,114.21c-0.6,0.66-0.95,1.55-2.07,3.4c2.52-0.22,4.08-0.14,5.52-0.51
			c81.45-20.51,162.91-41.02,244.32-61.67c5.89-1.49,12.51-2.71,17.08-6.26c14.44-11.2,28.07-23.44,41.99-35.3
			c1.28-1.09,2.43-2.33,3.64-3.5c0.39,0.38,0.78,0.76,1.18,1.14c-8.67,10.94-17.33,21.88-26,32.83c0.24,0.32,0.48,0.65,0.72,0.97
			c7.01-5.21,14.65-9.75,20.91-15.74c28.99-27.77,57.63-55.91,86.33-83.98c24.53-23.99,49.02-48.04,73.38-72.21
			c1.46-1.45,1.63-4.2,2.4-6.35c-1.96-0.3-4.03-1.14-5.88-0.81c-44.02,8.04-88.05,16.07-132.02,24.41
			c-15.61,2.96-31.57,4.46-46.08,12.19c-10.84,5.78-22.36,10.29-33.59,15.33c-1.05,0.47-2.18,0.76-3.28,1.13
			c-0.09-0.21-0.19-0.43-0.28-0.64C1230.93,710.98,1238.02,705.85,1245.11,700.72z"/>
		<path class="st0" d="M504.35,143.97c9.77-0.98,19.54-1.95,29.31-2.93c0.36,0.47,0.72,0.94,1.08,1.4
			c-5.69,7.85-2.4,14.98,0.56,22.34c30.31,75.33,60.54,150.68,90.72,226.06c4.62,11.53,12.33,19.93,23.52,25.31
			c14.83,7.14,29.56,14.45,44.03,22.49c-9.64-3.69-19.28-7.38-28.92-11.07c-0.17,0.38-0.35,0.77-0.52,1.15
			c10.01,5.47,20.03,10.93,30.04,16.4c-0.1,0.21-0.2,0.41-0.3,0.62c-9.66-3.7-19.33-7.4-28.99-11.11c-0.17,0.38-0.35,0.75-0.52,1.13
			c7.42,4.09,14.85,8.17,22.27,12.26c-0.1,0.21-0.21,0.42-0.31,0.62c-9.37-3.6-18.74-7.2-28.11-10.8c-0.15,0.29-0.29,0.59-0.44,0.88
			c4.6,2.61,9.2,5.22,13.81,7.83c-0.08,0.21-0.15,0.42-0.23,0.63c-1.68-0.67-3.38-1.29-5.03-2.02c-8.52-3.78-17.04-7.55-25.53-11.38
			c-11.21-5.06-21.64-3.9-31.37,3.66c-59.16,45.98-118.33,91.95-177.5,137.92c-14.33,11.13-28.49,22.49-43.04,33.33
			c-7.76,5.78-13.36,12.35-13.01,22.73c-0.51,0.21-1.02,0.43-1.53,0.64c-5.71-7.48-11.42-14.97-17.14-22.45
			c0.26-0.42,0.52-0.84,0.77-1.26c12.15,0.36,19.02-8.73,27.18-15.08c71.09-55.32,142-110.86,212.93-166.37
			c13.48-10.55,17.76-26.21,11.35-41.96c-30.36-74.62-60.83-149.19-91.19-223.81c-2.77-6.81-7.65-11.48-13.91-15.02
			C504.34,145.41,504.35,144.69,504.35,143.97z M601.72,434.24c-43.99,30-86.01,62.56-126.21,97.47
			C519.46,501.66,561.57,469.23,601.72,434.24z M454.14,548.84c-13.57,6.34-70.89,51.98-75.46,60.56
			C405.86,591.09,430.95,571.19,454.14,548.84z"/>
		<path class="st0" d="M475.81,552.83c-13.31,12.31-26.61,24.61-39.92,36.92c-12.23,11.31-24.5,22.58-36.68,33.93
			c-4.29,4-3.57,8.92,1.72,11.12c7.97,3.32,16.07,6.34,24.08,9.47c0.46-2.27,0.23-5.32,1.46-6.11c1.62-1.05,4.63-0.98,6.63-0.25
			c11.66,4.28,23.36,8.51,34.7,13.55c5.53,2.46,5.45,4.77,1.37,9.9c12.61,4.58,25.06,9.12,37.53,13.63
			c28.63,10.35,57.15,21.05,85.95,30.89c22.2,7.58,43.91,5.2,63.6-7.77c37.81-24.89,75.27-50.3,112.88-75.49
			c1.31-0.88,2.67-1.67,4.52-1.75c-8.84,6.6-17.67,13.21-26.53,19.78c-29.4,21.84-58.82,43.65-88.19,65.52
			c-18.72,13.94-38.97,17.74-61.23,9.86c-65.7-23.27-131.44-46.45-197.15-69.7c-2.66-0.94-5.28-2.05-7.82-3.28
			c-10.58-5.11-12.04-17.56-2.78-24.83c18.21-14.29,36.53-28.43,54.81-42.63c10.09-7.84,20.19-15.68,30.28-23.52
			C475.29,552.32,475.55,552.57,475.81,552.83z"/>
		<path class="st0" d="M817.37,521.4c-1.05,1.76-1.95,3.28-3.12,5.24c-9.59-4.13-19.02-8.17-28.44-12.25
			c-48.55-21.07-97.11-42.13-145.64-63.26c-9.01-3.92-17.37-3.31-25.5,2.32c-32.16,22.28-64.38,44.48-96.58,66.71
			c-1.28,0.89-2.61,1.71-4.4,1.85c9.8-7.63,19.59-15.26,29.39-22.88c23.53-18.3,47.11-36.55,70.58-54.93
			c7.58-5.94,15.4-6.97,24.25-3.02c58.36,26.07,116.76,52.02,175.15,78.03C814.4,519.8,815.68,520.54,817.37,521.4z"/>
		<path class="st0" d="M613.88,619.86c-9.92-0.33-20.13-3.67-28.23-12.04c-10.98-11.35-9.94-26.23,2.39-36.1
			c15.59-12.48,43.22-9.08,55.38,6.82c9,11.76,6.55,26.27-5.93,34.71C630.82,617.77,623.38,619.82,613.88,619.86z M636.42,581.02
			c-7.73-11.35-27.76-14.66-40.88-6.75c-11.68,7.04-13.49,20.71-4.05,30.54c10.04,10.45,29.82,12.39,41.4,3.86
			c2.5-1.84,4.43-4.47,6.62-6.74c-0.21-0.13-0.42-0.27-0.63-0.4c-5.23,2.24-10.46,4.48-16.3,6.97c2.72-4.8,5.14-8.33,6.78-12.19
			c1.83-4.32,0.99-8.8-2.5-11.95c-3-2.71-6.73-4.6-10.14-6.85c0.08-0.2,0.16-0.41,0.25-0.61c3.86,1.21,7.73,2.41,12.38,3.87
			c-2.44-2.04-4.25-3.55-6.06-5.07c0.16-0.28,0.33-0.55,0.49-0.83C628,576.91,632.22,578.97,636.42,581.02z"/>
		<path class="st0" d="M947.78,884.29c6.09-5.46,12.19-10.92,18.28-16.39c0.16,0.11,0.31,0.22,0.47,0.34
			c-5.1,7.1-10.2,14.19-15.3,21.29c0.29,0.27,0.57,0.54,0.86,0.81c6.55-5.96,13.11-11.92,19.66-17.89c0.15,0.09,0.29,0.18,0.44,0.28
			c-5.15,7.17-10.3,14.34-15.45,21.52c0.31,0.26,0.61,0.52,0.92,0.78c5.33-4.77,10.65-9.54,15.98-14.31
			c0.18,0.18,0.37,0.36,0.55,0.54c-4.4,4.89-8.64,9.95-13.24,14.64c-7.77,7.93-10.26,16.9-5.72,28.45
			c-15.51-3.96-27.17-12.13-37.29-24.26c18.64-1.86,24.8-18.49,36.78-28.09c-2.62,3.83-5.25,7.65-7.87,11.48
			C947.16,883.74,947.47,884.02,947.78,884.29z"/>
		<path class="st0" d="M701.32,488.39c-18.79-6.6-37.94-12.35-56.24-20.09c-13.13-5.55-23.21-4.24-34.38,4.61
			c-14.44,11.44-30.24,21.16-45.47,31.59c-1.44,0.99-3.01,1.81-5.15,1.78c15.69-12.28,31.23-24.76,47.13-36.75
			c5.47-4.13,11.55-7.86,17.92-10.24c3.61-1.35,8.77-0.56,12.55,0.95c21,8.38,41.8,17.28,62.65,26.02c0.59,0.25,1.07,0.73,1.61,1.1
			C701.75,487.7,701.53,488.04,701.32,488.39z"/>
		<path class="st0" d="M687,661.03c-18.89,12.12-37.74,24.31-56.7,36.31c-5.34,3.38-11.54,4-17.4,2.13
			c-20.9-6.71-41.67-13.83-62.49-20.82c-0.44-0.15-0.78-0.6-0.99-1.6c10.65,2.68,21.33,5.25,31.94,8.06
			c10.3,2.72,20.57,5.54,30.77,8.6c6.35,1.91,12.03,1.01,17.7-2.25c17.02-9.79,34.14-19.43,51.23-29.1c1.7-0.96,3.49-1.76,5.24-2.64
			C686.54,660.16,686.77,660.6,687,661.03z"/>
		<path class="st0" d="M618.26,628.44c20.58-3.63,38.19-11.69,38.1-35.68c-0.08-21.12-15.69-30.42-34.21-35.81
			c13.43-1.11,31.11,9.3,37.94,22.1c6.6,12.37,4.4,23.94-3.72,34.52C646.8,626.03,633.99,631.04,618.26,628.44z"/>
		<path class="st0" d="M598.47,625.26c-7.84,0.14-14.71-2.45-20.75-7.08c-9.78-7.49-15.87-17.33-17.63-29.58
			c-0.65-4.54,0.49-8.79,4.85-11.12c1.33-0.71,3.67-0.59,5.01,0.14c0.98,0.54,1.81,2.91,1.45,4.09
			c-5.16,17.05,5.58,34.58,24.06,42.25C596.46,624.39,597.47,624.83,598.47,625.26z"/>
		<path class="st0" d="M759.88,512.92c16.57,7.12,33.15,14.23,50.3,21.6c-0.97,2.09-1.82,3.93-2.86,6.17
			c-16.26-9.07-32.1-17.92-47.94-26.76C759.55,513.59,759.72,513.25,759.88,512.92z"/>
		<path class="st0" d="M408.57,622.49c14.43-13.28,28.85-26.55,43.28-39.83c0.4,0.43,0.8,0.87,1.21,1.3
			c-13.36,14.42-27.61,27.89-43.21,39.9C409.42,623.41,409,622.95,408.57,622.49z"/>
		<path class="st0" d="M579.07,566.55c-2.83,2.38-4.61,4.16-6.7,5.42c-0.41,0.25-2.01-1.5-3.07-2.32c1.66-1.87,3.2-3.91,5.11-5.49
			C574.79,563.84,576.59,565.24,579.07,566.55z"/>
		<path class="st0" d="M799.94,581.3c-3.22,2.82-6.43,5.63-9.65,8.45c-0.26-0.26-0.53-0.51-0.79-0.77c2.91-3.16,5.82-6.31,8.73-9.47
			C798.8,580.1,799.37,580.7,799.94,581.3z"/>
		<path d="M1412.68,497.47c5.82,3.38,11.63,6.76,18.32,10.65c-4.55-8.3-8.77-16-12.99-23.69c0.22-0.18,0.43-0.36,0.65-0.54
			c3.92,4.3,7.83,8.61,11.75,12.91c0.44-0.33,0.88-0.66,1.32-0.99c-6.92-18.53-13.83-37.06-20.75-55.58
			c0.24-0.1,0.48-0.21,0.72-0.31c6.84,13.4,13.68,26.81,20.52,40.21c16.56,32.47,33.12,64.93,49.68,97.4
			c3.96,7.76,3.14,9.36-5.36,10.86c-40.63,7.15-81.27,14.33-121.9,21.47c-0.88,0.16-1.82,0.02-2.85-0.58
			c6.65-2.4,13.3-4.8,21.22-7.65c-23.84-10.28-46.52-20.05-69.88-30.12c3.41-2.54,6.46-4.82,10-7.46
			c-23.59-13.25-46.72-26.25-69.85-39.24c0.12-0.25,0.24-0.49,0.36-0.74c34.55,15.03,69.1,30.05,104.22,45.33
			c-2.52,2.02-4.66,3.73-6.84,5.47c6.93,5.61,30.46,9.73,42.95,7.08c-3.48-0.79-5.78-1.24-8.05-1.83
			c-22.41-5.84-40.27-17.41-49.08-39.86c-1.67-4.25-2.37-9.01-2.74-13.6c-0.24-2.93-1.21-4.35-3.73-5.64
			c-12.9-6.56-25.75-13.23-38.51-20.07c-2.9-1.56-5.23-1.7-8.34-0.43c-29.62,12.08-68.49-2.13-82.17-29.91
			c-3.33-6.77-5.13-13.84-3.96-20.48c3.82,6.57,6.84,14.55,12.18,20.43c17.83,19.66,40.51,26.9,66.48,21.73
			c20.6-4.1,30.69-17.11,31.12-37.87c3.03,3.69,4.38,10.57,2.57,17.62c-0.89,3.46,0.27,4.66,3.02,6.04
			c10.4,5.24,20.76,10.57,31,16.13c2.84,1.54,4.8,1.52,7.62-0.23c11.09-6.88,23.12-8.61,35.14-5.92
			c-6.52,1.43-13.86,2.18-20.57,4.66c-23.51,8.69-30.28,32.47-15.43,52.71c15.56,21.2,47.22,31.43,72.02,22.93
			c13.52-4.63,23.16-13.24,24.97-28.25c1.17-9.77-2.1-18.6-8.34-25.91c-5.02-5.89-11.04-10.92-16.61-16.33
			C1412.58,497.75,1412.63,497.61,1412.68,497.47z"/>
		<path d="M1172.67,606.43c11.3,6.59,22.35,8.33,33.78,7.16c6.41-0.65,12.67-2.71,19.05-3.8c3.63-0.62,7.5-1.26,11.05-0.67
			c8.85,1.47,17.53,4.03,26.39,5.41c6.82,1.06,13.83,1.47,20.74,1.34c13.15-0.26,26.29-1.11,39.44-1.71
			c1.09-0.05,2.19-0.01,3.33,0.54c-36.86,6.47-73.72,12.94-110.58,19.4c-14.1,2.47-28.21,4.88-42.3,7.4
			c-11.27,2.01-16.06-0.44-20.28-10.95c-15.32-38.14-30.59-76.31-45.87-114.47c-0.59-1.46-1.05-2.97-0.77-4.76
			c8.87,16.87,17.75,33.75,26.62,50.62c0.31-0.12,0.62-0.24,0.93-0.35c-2.41-9.78-4.83-19.56-7.24-29.33
			c0.26-0.13,0.52-0.25,0.78-0.38c3.5,6.55,7,13.1,10.94,20.47c2.51-7.64,4.5-14.79,12.13-18.68c-8.68,18.37-6.23,31.16,9.76,44.92
			c17.51,15.06,38.08,21.01,60.91,16.19c6.77-1.43,13.02-5.31,19.09-7.89c-1.7,4.22-5.69,7.78-10.24,10.71
			c-10.61,6.83-22.56,8.66-34.87,8.82C1188.34,606.5,1181.21,606.43,1172.67,606.43z"/>
		<path d="M1239.29,376.17c-4,7.93-8.04,9.44-14.68,5.76c-35.66-19.76-71.3-39.56-106.94-59.36c-1.13-0.63-2.2-1.36-4.42-2.74
			c9.26-0.9,17.31-1.71,25.36-2.44c6.13-0.56,12.39-0.46,18.38-1.68c6.47-1.31,11.55,0.85,16.84,3.91
			c9.63,5.58,19.46,10.83,29.67,16.47c0.2-0.89,0.34-1.43,0.44-1.98c1.09-6.38,4.7-8.06,10.24-4.64
			c7.77,4.81,15.49,9.72,23.67,14.86c2.43-6.92,4.52-13.8,12.73-17.95c-5.7,8.3-7.62,16.19-5.09,24.84
			c2.48,8.46,7.5,15.29,14.18,20.72c19.41,15.79,41.21,21.98,65.73,14.67c5.07-1.51,9.62-4.8,15.49-7.83
			c-3.38,4.05-6.16,7.39-9.32,11.18c11.7,7.68,23.51,15.45,35.32,23.21c-0.14,0.26-0.27,0.51-0.41,0.77
			c-10.98-4.62-21.95-9.23-32.93-13.86c-1.99-0.84-4.06-1.56-5.94-2.6c-3.86-2.13-7.48-2.02-11.82-0.84
			c-18.15,4.94-35.2,1.35-51.45-7.62C1256.22,384.55,1247.83,380.53,1239.29,376.17z"/>
		<path d="M1304.88,380.54c-16.31-0.66-30.29-5.88-41.19-17.99c-4.59-5.09-7.5-10.98-7.44-18.03c0.08-9.38,5.93-16.77,16.19-20.53
			c18.46-6.76,45.52,1.04,57.57,16.59c13.41,17.3,5.07,36.12-17.5,39.39C1309.89,380.36,1307.21,380.38,1304.88,380.54z
			 M1268.7,346.17c0.34,0.31,0.68,0.62,1.03,0.94c20.41-9.25,35.97-4.39,45.95,16.8c0.51-0.41,1.01-0.82,1.52-1.24
			c-1.44-5.53-2.88-11.07-4.32-16.6c0.24-0.27,0.48-0.54,0.72-0.82c4.12,4.24,8.24,8.49,12.05,12.42
			c-0.2-10.66-11.57-23.7-24.35-27.35c-13.52-3.87-28.13,0.34-34.71,10.26c4.18-1.17,8.08-2.27,11.87-3.33
			C1275.17,340.24,1271.93,343.2,1268.7,346.17z M1298.14,350.75c0.08-0.56,0.17-1.13,0.25-1.69c-1.77-1.09-3.44-2.71-5.34-3.07
			c-1.18-0.22-2.72,1.49-4.09,2.34c1.57,1.4,2.94,3.29,4.78,4.01C1294.83,352.76,1296.65,351.34,1298.14,350.75z"/>
		<path d="M1252.47,481.21c-17.87-1.24-32.5-6.29-43.33-19.34c-12.5-15.06-6.88-32.79,11.95-38.19
			c19.25-5.52,44.36,2.59,55.78,18.01c11.45,15.47,5.89,32.17-12.58,37.36C1259.99,480.25,1255.48,480.68,1252.47,481.21z
			 M1214.4,446.17c0.51,0.47,1.03,0.95,1.54,1.42c20.62-9.77,36.05-4.31,46.15,16.73c0.46-0.38,0.92-0.76,1.38-1.14
			c-1.31-5.4-2.61-10.8-3.92-16.2c0.3-0.29,0.59-0.58,0.89-0.87c4.13,4.02,8.25,8.04,11.76,11.45
			c-2.16-13.5-13.34-24.73-28.46-27.74c-11.96-2.38-25.29,2.3-30.73,11.11c3.79-1.1,7.26-2.11,9.64-2.79
			C1220.21,440.52,1217.3,443.35,1214.4,446.17z M1240.03,444.85c-2.18,1.6-3.48,2.55-4.79,3.51c1.46,1.49,2.69,3.48,4.46,4.25
			c0.95,0.41,2.82-1.27,4.27-2.01C1242.82,448.91,1241.67,447.23,1240.03,444.85z"/>
		<path d="M1374.07,500.59c17.63,0.45,31.04,5.16,41.82,15.91c7.02,7,11.52,15.32,8.5,25.65c-2.98,10.2-11.17,14.83-20.77,16.4
			c-20.92,3.43-39.1-2.31-52.68-19.02c-11.45-14.09-6.25-30.78,10.98-36.52C1366.59,501.46,1371.63,501.06,1374.07,500.59z
			 M1356.55,524.5c0.68,0.66,1.36,1.32,2.04,1.98c8.54-4.69,17.43-6.29,26.88-3.17c9.46,3.13,14.56,10.7,18.71,19.26
			c0.59-0.28,1.17-0.55,1.76-0.83c-1.41-5.55-2.81-11.1-4.61-18.19c5.18,5.07,9.45,9.25,13.32,13.04
			c-1.37-12.32-12.35-24.02-26.52-27.66c-12.37-3.18-26.3,1.26-32.88,10.79c3.72-1.02,7.11-1.95,10.51-2.88
			c0.09,0.3,0.18,0.59,0.27,0.89C1362.86,519.98,1359.71,522.24,1356.55,524.5z M1388.51,528.16c-3.45-1.48-5.48-2.77-7.65-3.09
			c-0.89-0.13-2.08,1.85-3.14,2.86c1.91,1.26,3.7,2.9,5.8,3.58C1384.38,531.79,1385.91,529.98,1388.51,528.16z"/>
		<path d="M1208.98,587.41c-18.58-0.56-32.32-5.54-43.26-17.01c-5.59-5.85-9.18-12.76-8.21-21.16c1.23-10.64,9.81-18.43,22.89-20.19
			c18.58-2.51,34.94,2.49,48.38,15.88c1.98,1.97,3.72,4.29,5.16,6.7c7.57,12.66,2.88,27.1-10.9,32.41
			C1217.72,586.09,1211.85,586.75,1208.98,587.41z M1169.41,552.71c0.39,0.43,0.77,0.86,1.16,1.29c20.6-9.41,36.29-4.62,46.22,16.86
			c0.5-0.4,1-0.79,1.5-1.19c-1.51-5.75-3.02-11.49-4.94-18.81c5.21,5.14,9.57,9.44,13.53,13.35c-1.33-12.74-13.7-25.32-28.12-28
			c-12.39-2.3-26.27,2.64-30.73,11.03c3.21-0.87,6.34-1.72,9.47-2.57c0.2,0.31,0.4,0.63,0.61,0.94
			C1175.21,547.99,1172.31,550.35,1169.41,552.71z M1193.51,551.18c-1.57,2.04-2.5,3.26-3.44,4.49c1.73,1.23,3.33,2.91,5.25,3.46
			c0.83,0.24,2.33-1.85,3.53-2.89C1197.32,554.8,1195.81,553.36,1193.51,551.18z"/>
		<path d="M1104.61,346.4c17.94,0.8,31.31,5.6,41.92,16.55c2.83,2.92,5.2,6.56,6.91,10.27c4.83,10.5,1.29,21.22-8.7,27.12
			c-10.37,6.12-21.59,6.23-32.91,3.75c-13.09-2.87-24.39-8.95-31.99-20.41c-9.11-13.73-4.72-28.09,10.64-34.03
			C1095.78,347.59,1101.69,347.04,1104.61,346.4z M1132.11,371.31c0.2-0.43,0.4-0.86,0.59-1.28c4.03,4.4,8.07,8.8,12.2,13.32
			c-1.36-13.27-12.9-25.37-27.15-28.66c-12.48-2.88-26.46,1.79-32.01,10.86c3.45-0.94,6.74-1.85,10.03-2.75
			c0.25,0.42,0.49,0.84,0.74,1.27c-3.27,2.03-6.54,4.06-9.81,6.09c0.63,0.63,1.26,1.26,1.9,1.9c23.23-8.49,30.67-5.87,46.01,16.23
			c0.48-0.11,0.96-0.21,1.43-0.32C1134.74,382.41,1133.42,376.86,1132.11,371.31z M1118.69,374.14c-3.48-1.56-5.48-2.88-7.64-3.23
			c-0.86-0.14-2.06,1.86-3.1,2.89c1.89,1.25,3.66,2.88,5.73,3.58C1114.52,377.67,1116.05,375.93,1118.69,374.14z"/>
		<path d="M1369.49,358.74c-7.65-10.61-15.04-21.41-23.03-31.76c-5.58-7.23-11.9-13.89-18.01-20.7c-5.66-6.31-12.87-9.03-21.33-9.11
			c-26.48-0.27-52.95-0.72-79.42-1.09c-1.97-0.03-3.93,0-5.92-0.74c12.56-1.17,25.11-2.33,37.67-3.51
			c16.57-1.56,33.16-2.94,49.7-4.76c16.72-1.83,25.9,2.73,33.68,17.79c8.55,16.55,16.92,33.19,25.36,49.8
			c0.64,1.27,1.17,2.6,1.76,3.9C1369.79,358.63,1369.64,358.69,1369.49,358.74z"/>
		<path d="M1158.7,404.82c-2.53,5.07-7.01,9.08-12.33,12.19c-29.2,17.04-74.54,1.26-86.76-30.21c-3.88-10.01-3.86-19.88,2.42-29.04
			c1.58-2.3,3.94-4.06,6.23-5.74c-7.85,16.97-6.14,29.39,7.61,42.32c18.26,17.16,40.05,23.93,64.78,18.34
			C1147.03,411.23,1152.87,407.43,1158.7,404.82z"/>
		<path d="M1092.01,462.94c0.67,6.44,1.22,11.68,1.77,16.93c-0.24,0.09-0.48,0.17-0.72,0.26c-6.99-17.42-13.97-34.84-20.96-52.26
			c0.24-0.12,0.47-0.25,0.71-0.37c4.93,6.84,9.73,13.78,14.85,20.48c1.64,2.15,3.85,4.17,6.23,5.42
			c27.15,14.14,54.38,28.11,81.58,42.13c1.16,0.6,2.27,1.28,3.01,2.83C1149.99,486.69,1121.5,475.02,1092.01,462.94z"/>
		<path d="M1079.82,309.38c-9.83,2.24-19.74,4.22-29.49,6.78c-12.54,3.3-13.41,4.75-11.34,17.4c1.06,6.5,2.64,12.92,3.26,19.65
			c-3.48-8.65-6.7-17.42-10.52-25.91c-4.63-10.31-4.35-14.56,9.17-15.14c11.45-0.48,22.85-2.12,34.27-3.21
			c1.54-0.15,3.11-0.02,4.67-0.02C1079.84,309.09,1079.83,309.23,1079.82,309.38z"/>
		<path d="M1282.74,431.77c-16.51-14-35.47-20.36-57.47-18.59C1240.24,403.81,1273.59,412.39,1282.74,431.77z"/>
		<path d="M1236.08,537.31c6.5,4.12,10.73,9.96,13.45,16.8c0.56,1.42-0.36,3.43-0.6,5.16c-1.2-1.17-2.78-2.14-3.53-3.55
			c-2.76-5.21-5.24-10.57-7.85-15.86C1237.13,538.99,1236.58,538.16,1236.08,537.31z"/>
		<path d="M855.68,693.4c11.44,26.52,22.88,53.05,34.32,79.57c0.34-0.09,0.67-0.19,1.01-0.28c-3.04-14.44-6.07-28.89-9.11-43.33
			c0.26-0.09,0.52-0.18,0.79-0.27c6.33,16.33,12.67,32.66,19,48.98c2.07-15.8,5.15-31.05,14.31-45.76
			c-1.98,8.18-4.14,15.08-5.28,22.15c-3,18.58-2.55,36.93,6.46,54.07c7.06,13.42,19.69,19.1,31.84,14.82
			c8.13-2.86,13.9-8.61,17.91-15.9c13.4-24.32,15.31-49.88,7.54-76.34c-0.31-1.07-0.76-2.1-0.85-3.25c5.49,7.74,8.45,16.5,9.5,25.76
			c1.02,8.96,1.15,18.02,1.96,27.66c0.09-10.19,7.92-8.43,13.81-10.02c2.85-0.76,6.04-2.07,7.98-4.14
			c14.91-15.93,29.55-32.11,44.26-48.23c1.32-1.45,2.49-3.03,4.58-5.6c-7.11,0.88-13.14,1.29-19.03,2.44
			c-6.23,1.23-11.41,0.29-16.62-3.69c-7.64-5.83-15.88-10.87-24.66-16.77c2.27-0.53,3.75-1.04,5.26-1.2
			c23.52-2.38,47.04-4.87,70.59-6.93c4.15-0.36,6.4-1.94,7.97-5.39c1.35-2.97,2.79-5.9,4.58-9.67c-32.7,2.65-64.35,5.22-96.33,7.82
			c2.85-6.21,5.55-12.12,8.26-18.03c-0.25-0.11-0.5-0.21-0.76-0.32c-5.14,4.9-9.89,10.32-15.52,14.56
			c-5.38,4.05-11.4,7.61-17.65,10.07c-10.44,4.11-20.49,2.25-29.92-4c-2.38-1.58-5.72-2.57-8.57-2.47
			c-19.48,0.68-38.95,1.66-58.41,2.73c-2.97,0.16-4.49-0.48-5.45-3.46c-1.68-5.18-3.85-10.2-6.06-15.93
			c21.2-1.07,41.74-2.11,62.86-3.18c-3.68-12.73-4.35-25.24-2.68-37.89c1.67-12.71,5.56-24.6,12.79-35.34
			c-5.81,14.95-8.16,30.46-7.18,46.36c0.88,14.33,3.68,28.16,14.39,38.89c9.08,9.09,21.85,10.05,32.29,2.41
			c10.51-7.69,15.61-18.9,18.87-30.96c5.42-20.04,6.01-40.09-1.34-59.91c-0.09-0.25,0.08-0.6,0.21-1.33
			c9.38,15.18,11.09,31.72,10.66,49.28c27.03-2.24,53.5-4.44,80.55-6.69c-0.83-3.17-1.52-5.81-2.3-8.79
			c-13.24,0.84-26.15,1.65-39.07,2.47c-0.05-0.35-0.11-0.69-0.16-1.04c12.15-2.87,24.3-5.74,37.25-8.8
			c-2.88-10.74-5.69-21.22-8.49-31.69c0.23-0.09,0.46-0.17,0.69-0.26c3.42,8.27,6.86,16.52,10.25,24.8
			c5.99,14.62,11.88,29.28,17.92,43.88c7.27,17.57,4.82,33.37-7.86,47.73c-44.2,50.09-88.3,100.26-132.43,150.41
			c-8.14,9.25-16.24,18.55-24.36,27.82c-0.77,0.88-1.53,1.77-2.37,2.57c-4.08,3.89-6.38,3.47-8.27-1.87
			c-4.17-11.76-8.17-23.58-12.21-35.39c-15.93-46.6-31.85-93.2-47.77-139.81c-0.31-0.91-0.53-1.84-0.79-2.77
			C855.14,693.77,855.41,693.58,855.68,693.4z"/>
		<path d="M925.23,436.2c-4.82,14.78-6.81,29.69-6.06,44.97c0.53,10.74,2.69,21.13,7.98,30.66c10.93,19.71,32.99,21.25,46.53,3.22
			c8.55-11.39,12.27-24.6,14.17-38.46c1.85-13.54,1.14-26.9-2.71-40.06c-0.2-0.69-0.03-1.49,0.41-2.26
			c10.91,21.91,10.77,44.61,4.31,68.39c7.99-1,15.54-1.78,23.02-2.96c3.21-0.51,4.79,0.33,5.99,3.36c2.56,6.48,5.5,12.81,8.45,19.57
			c-23.15,4.89-46.6,6.47-69.85,13.02c1.53,2.64,2.52,4.5,3.66,6.27c4.37,6.84,2.2,12.31-5.77,13.92
			c-22.02,4.44-44.06,8.77-66.1,13.13c-15.83,3.13-31.67,6.21-47.49,9.36c-7.15,1.42-7.14,1.46-7.15,10.36
			c25.51-4.69,50.89-9.37,76.27-14.04c0.09,0.36,0.18,0.72,0.27,1.08c-10.67,3.46-21.33,6.93-32.01,10.36
			c-13.94,4.48-27.86,9.02-41.86,13.32c-3.1,0.95-4.45,2.4-4.04,5.63c1.48,11.54,2.89,23.09,4.33,34.63
			c0.13,1.06,0.25,2.13,0.04,3.25c-6.9-19.76-15.2-39.13-16.32-60.39c-0.76-14.38,2.37-27.97,10.44-39.91
			c16.21-23.99,32.86-47.69,50.24-71.04c-3.97,8.15-7.95,16.31-12.38,25.41c6.03-1.53,11.12-2.8,16.2-4.11
			c7.57-1.95,15.09-4.14,22.72-5.81c3.51-0.76,4.39-2.32,4.38-5.75c-0.07-14.22,3.24-27.7,9.66-40.41
			C923.36,439.3,924.33,437.77,925.23,436.2z M845.71,545.48c1.38,0.09,2.05,0.26,2.66,0.15c12.57-2.43,25.15-4.89,37.71-7.36
			c8.61-1.69,17.15-4.02,25.96-0.72c2.14,0.8,4.67,0.57,8.08,0.92c-6.11-3.48-11.32-6.02-16.05-9.27c-4.68-3.22-4.38-6.04,0.94-8.16
			c4.77-1.91,9.95-2.8,14.69-4.08c-2.2-6.71-4.5-13.72-6.87-20.97c-12.26,3.04-24.23,6.77-36.48,8.79
			c-9.28,1.53-14.54,5.73-17.87,14.43C855.05,528.13,850.16,536.48,845.71,545.48z"/>
		<path d="M929.51,630.49c0.17-15.99,1.65-27.73,6.62-38.61c2.37-5.19,5.55-10.32,9.48-14.42c7.5-7.82,17.47-6.61,23.94,2.27
			c5.36,7.37,7.27,16.02,8.13,24.84c1.56,15.96-0.06,31.63-6.79,46.34c-2.17,4.73-5.27,9.36-8.95,13.02
			c-7.67,7.63-17.69,6.21-23.9-2.68C932.45,653.23,929.46,641,929.51,630.49z M954.85,591.07c1.16,1.55,2.44,2.6,2.84,3.92
			c1.1,3.6,3.77,8.53,2.37,10.78c-6.46,10.41-6.61,21.27-3.57,32.23c1.58,5.67-0.81,8.17-5.67,12.19
			c-2.32-10.92-4.42-20.79-6.52-30.65c-0.26-0.01-0.52-0.03-0.77-0.04c0,6.35,0,12.69,0,19.04c-0.5,0.03-0.99,0.06-1.49,0.09
			c-1.1-7.43-2.19-14.85-3.29-22.28c-1.82,10.21-1.69,20.28,1.33,30.14c0.97,3.15,2.19,6.33,3.89,9.13c4,6.59,9.15,7.09,13.94,1.14
			c2.77-3.45,5.16-7.43,6.78-11.54c5.78-14.76,7.03-30.13,4.04-45.63c-1.04-5.41-3.4-10.78-6.17-15.59
			c-2.71-4.7-6.18-4.75-9.21-2.17c3,2.71,6.1,5.52,9.21,8.33c-0.29,0.3-0.58,0.61-0.88,0.91
			C959.42,591.07,957.16,591.07,954.85,591.07z"/>
		<path d="M968.13,759.71c-0.19,16.01-2.44,31.5-11.84,45.08c-0.94,1.36-2.02,2.65-3.19,3.82c-8.43,8.33-19.52,7.62-25.09-2.8
			c-3.82-7.14-6.41-15.41-7.47-23.45c-2.31-17.44-0.12-34.59,8.29-50.38c2.06-3.87,4.97-7.58,8.28-10.45
			c6.73-5.82,14.92-5.09,20.87,1.55c7.53,8.39,9.13,18.96,10.13,29.65C968.31,755.03,968.13,757.38,968.13,759.71z M928.96,761.6
			c-0.26-0.04-0.52-0.07-0.78-0.11c0,6.97-0.87,14.07,0.25,20.86c1.11,6.74,3.44,13.56,6.66,19.58c3.12,5.83,7.67,5.86,12.15,0.96
			c2.65-2.9,4.99-6.31,6.57-9.89c6.43-14.54,8.18-29.89,5.64-45.46c-1.02-6.23-3.69-12.4-6.69-18.03c-2.5-4.69-5.92-4.73-9.29-2.36
			c2.94,2.67,6.07,5.51,9.2,8.36c-0.33,0.35-0.67,0.7-1,1.05c-2.18,0-4.35,0-7.22,0c1.51,1.6,2.98,2.5,3.39,3.74
			c1.16,3.57,3.85,8.5,2.46,10.73c-6.39,10.23-6.78,20.95-3.77,31.75c1.59,5.72-0.22,8.64-5.56,12.47
			c-2.25-10.5-4.36-20.32-6.47-30.14c-0.26,0.02-0.53,0.04-0.79,0.06c0,6.89,0,13.78,0,20.67c-0.38,0.05-0.77,0.09-1.15,0.14
			C931.37,777.85,930.17,769.72,928.96,761.6z"/>
		<path d="M929.51,475.56c0.31-14.58,2.28-27.84,8.75-40.03c1.69-3.19,3.82-6.3,6.3-8.91c8.51-8.96,19.85-8.08,25.66,2.86
			c3.65,6.87,6.05,14.82,7.17,22.55c2.38,16.42,0.11,32.56-6.71,47.8c-1.74,3.89-4.2,7.62-7.01,10.82
			c-8.28,9.45-20.14,8.86-26.02-2.17c-3.88-7.28-5.45-15.84-7.61-23.95C929.22,481.39,929.62,477.91,929.51,475.56z M944.35,468.09
			c-0.25-0.03-0.51-0.05-0.76-0.08c0,6.28,0,12.55,0,18.83c-0.52,0.03-1.04,0.06-1.56,0.08c-1.08-7.44-2.16-14.87-3.36-23.14
			c-2.48,11.25-0.95,27.4,3.31,36.4c0.98,2.08,2.19,4.14,3.67,5.9c3.2,3.78,6.8,4.18,10.38,0.81c2.38-2.24,4.6-4.93,6.02-7.84
			c9.23-18.91,10.7-38.59,4.71-58.7c-1.05-3.52-3.37-6.87-5.78-9.73c-2.39-2.83-5.58-2.95-7.7-0.83c3.22,3.04,6.26,5.92,9.3,8.79
			c-0.29,0.33-0.59,0.66-0.88,0.99c-2.32,0-4.64,0-7.52,0c1.55,1.55,3.1,2.41,3.5,3.63c1.17,3.58,3.86,8.55,2.45,10.78
			c-6.54,10.39-6.67,21.25-3.64,32.21c1.56,5.64-0.74,8.21-5.71,12.16C948.49,487.61,946.42,477.85,944.35,468.09z"/>
		<path d="M1039.3,521.77c-10.15-21.48-20.3-42.97-30.44-64.45c-13.21-27.98-26.41-55.96-39.63-83.93
			c-2.73-5.77-4.08-5.88-8.15-0.86c-21.3,26.23-42.61,52.46-63.93,78.68c-0.81,1-1.72,1.92-3.27,2.45c0.55-1.05,1-2.18,1.67-3.15
			c21.56-31.01,43.09-62.05,64.85-92.93c1.47-2.09,4.99-4.31,7.11-3.94c2.46,0.42,5.44,3.23,6.47,5.72
			c20.81,50.4,41.38,100.9,61.99,151.38c1.42,3.49,2.83,6.99,4.24,10.48C1039.9,521.42,1039.6,521.59,1039.3,521.77z"/>
		<path d="M374.31,568.06c8.38-3.37,15.84-6.36,23.3-9.35c0.19,0.36,0.38,0.72,0.57,1.08c-10.35,8.05-20.56,16.28-31.12,24.04
			c-4.1,3.02-7.64,0.72-9.18-5.2c-3.85-14.81-7.69-29.62-11.53-44.43c-2.5-9.62-4.99-19.25-6.69-29.22
			c3.87,6.96,7.75,13.92,12.34,22.19c1.78-9.39,3.25-17.44,4.83-25.46c5.32-26.92,10.62-53.84,16.1-80.73
			c0.89-4.37,2.37-8.68,4.13-12.78c2.06-4.82,6.26-6.64,11.38-6.44c4.99,0.2,7.04,3.85,7.84,7.8c1.56,7.78,2.45,15.69,3.66,23.8
			c9.27-45.93,18.54-91.86,27.81-137.78c0.31,0.02,0.62,0.05,0.94,0.07c1.49,12.92,2.97,25.84,4.47,38.76
			c1.19,10.25,2.67,20.47,3.46,30.75c0.32,4.2-0.59,8.56-1.41,12.76c-4.73,24.33-9.6,48.63-14.43,72.94
			c-0.12,0.62-0.39,1.22-0.21,0.66c-7.57-0.65-14.9-2.62-21.78-1.62c-17.15,2.51-30.26,17.34-32.7,35.12
			c-1.62,11.83-1,15.98,5.22,32.97c-2.17-2.32-3.36-3.61-5.61-6.02c2.07,9.18,4.63,16.72,10.67,22.26c2.99,2.74,3.15,5.3,2.5,8.7
			C377.33,551.01,375.93,559.13,374.31,568.06z"/>
		<path d="M397.77,257.58c0.98-2.31,1.96-4.61,2.94-6.92c-0.2-0.16-0.4-0.33-0.6-0.49c-11.82,9.37-23.64,18.74-35.46,28.11
			c-0.27-0.32-0.54-0.65-0.8-0.97c6.85-6.17,13.69-12.36,20.55-18.52c34.7-31.15,69.4-62.31,104.13-93.43
			c4.96-4.44,9.78-3.38,12.57,2.73c1.72,3.78,3.19,7.68,4.75,11.53c0.25,0.61,0.39,1.26,0.67,2.17c-5.11-0.22-6.07,2.98-5,6.75
			c1.66,5.88,3.37,11.86,6.11,17.27c1.4,2.77,4.81,5.5,7.81,6.24c3.26,0.8,4.54,2.12,5.67,4.94c7.87,19.59,15.9,39.12,24.3,59.69
			c-6.64-1.47-12.56-2.56-18.31-4.25c-1.2-0.35-2-2.84-2.56-4.49c-5.44-15.84-12.28-30.93-22.94-44.05
			c-4.09-5.03-8.08-10.14-12.12-15.21c-0.55,0.44-1.1,0.89-1.65,1.33c2.77,1.25,5.55,2.5,8.52,3.83
			c-9.17-14.4-31.27-16.55-42.18-9.29c4.4,0.4,8.86,0.8,13.32,1.2c0.05,0.47,0.11,0.94,0.16,1.41c-18.33-1.27-31,8.43-42.2,21.05
			c-7.85,8.84-15.76,17.63-23.65,26.44c-1.04,1.16-2.12,2.3-3.17,3.45C398.33,257.93,398.05,257.76,397.77,257.58z"/>
		<path d="M494.93,257.04c-0.44,12.67-3.06,21.43-9.34,28.87c-10.45,12.39-28.21,13.19-39.72,1.79
			c-13.67-13.54-14.57-39.13-1.87-53.46c14.23-16.05,37.25-12.47,46.52,7.61C493.11,247.46,494.03,253.84,494.93,257.04z
			 M461.5,238.46c4.85-0.92,9.18-1.75,13.93-2.65c-5.65-4.18-11.51-4.97-17.48-2.22c-9.16,4.23-13.52,12.21-14.69,21.75
			c-1.28,10.42,1.03,19.95,9.35,27.56c-1.58-6.35-3.08-12.35-4.57-18.33C460.8,261.4,466.06,251.15,461.5,238.46z M463.45,270.7
			c-2.52-2.45-4.11-3.99-5.7-5.54c-1.31,1.8-3.55,3.53-3.66,5.41c-0.1,1.65,2.15,3.45,3.37,5.18
			C459.14,274.34,460.82,272.93,463.45,270.7z"/>
		<path d="M546.15,400.43c-0.25,8.63-3.94,18.99-13.4,26.67c-10.64,8.64-25.39,7.71-35.39-2.08c-14.55-14.26-14.53-41.45,0.04-55.64
			c12.35-12.02,31.11-10.22,41.25,3.97C543.67,380.37,546.12,388.18,546.15,400.43z M504.16,420.52c-1.72-6.87-3.22-12.86-4.74-18.9
			c12.53-2.45,17.91-12.88,13.73-25.9c4.4-0.9,8.74-1.79,13.82-2.83c-4.98-3.04-9.33-4.51-14.38-3.11
			c-10.19,2.82-15.18,10.31-17.34,19.9C492.64,401.27,495.35,411.54,504.16,420.52z M514.93,407.94c-2.56-2.53-4.13-4.08-5.7-5.62
			c-1.35,1.62-3.78,3.26-3.77,4.87c0.02,1.9,2.15,3.78,3.37,5.67C510.51,411.49,512.2,410.13,514.93,407.94z"/>
		<path d="M433.84,493.95c-0.33,10.11-3.4,19.69-11.29,27.32c-10.73,10.36-26.48,10.33-37.23-0.08c-15.77-15.27-14.68-45,2.12-57.87
			c12.21-9.35,28.13-7.41,37.77,4.58C431.2,475.34,433.71,483.94,433.84,493.95z M413.98,469.18c-6.47-5.71-15.89-5.27-22.73,1.43
			c-8.73,8.56-10.75,19.13-8.19,30.77c1.24,5.62,3.86,10.47,8.52,14.5c-1.54-6.41-2.95-12.27-4.43-18.43
			c6.97-0.75,11.58-4,13.32-9.46c1.57-4.9,1.41-10.35,2.15-16.71C405.4,470.78,409.68,469.98,413.98,469.18z M393.11,503.93
			c2.69,2.19,4.36,3.55,6.04,4.92c1.24-1.71,3.56-3.5,3.44-5.1c-0.15-1.9-2.41-3.64-3.76-5.44
			C397.26,499.85,395.69,501.4,393.11,503.93z"/>
		<path d="M327.44,351.64c0.38-9.86,3.56-18.58,10.49-25.73c10.74-11.08,27.38-11.19,38.34-0.33c14.25,14.12,14.46,40.56,0.45,54.87
			c-12.08,12.34-30.29,11.35-41.02-2.26C329.56,370.41,327.2,361.41,327.44,351.64z M367.57,329.11
			c-7.07-4.84-13.73-4.97-20.27-0.63c-9.09,6.04-13.88,18.98-11.46,30.96c1.32,6.5,3.91,12.24,9.16,16.83
			c-1.64-6.53-3.14-12.53-4.65-18.56c12.56-2.53,17.81-12.67,13.69-26C358.43,330.87,362.74,330.04,367.57,329.11z M344.46,363.58
			c2.46,2.4,3.95,3.86,5.44,5.31c1.34-1.76,3.62-3.45,3.75-5.3c0.12-1.61-2.18-3.39-3.42-5.1
			C348.58,359.95,346.94,361.39,344.46,363.58z"/>
		<path d="M465.08,354.95c-1.64,8.44-3.29,16.88-4.91,25.32c-2.79,14.54-4.94,29.25-8.59,43.58c-2.17,8.51-6.68,16.43-10.14,24.61
			c-0.51-0.18-1.02-0.36-1.54-0.54c8.88-46.43,17.76-92.85,26.59-139.01c-6.3-2.5-12.29-4.89-18.29-7.27
			c0.16-0.51,0.32-1.02,0.48-1.53c8.65,4.06,17.58,5.44,26.61,2.17c16.36-5.92,25.04-18.38,27.5-35.02
			c2.72-18.36-3.11-32.32-17.41-44.73c0.25-0.36,0.51-0.71,0.76-1.07c3.72,2.87,7.88,5.32,11.08,8.68
			c17,17.87,16.1,48.15-1.48,66.23c-1.87,1.93-3.13,4.95-3.6,7.66c-2.82,16.22-5.18,32.52-8.05,48.73
			c-0.62,3.5-2.35,6.93-4.15,10.05c-2.12,3.68-6.1,5.51-9.82,3.9c-2.01-0.87-2.87-4.68-3.93-7.29c-0.53-1.31-0.34-2.91-0.48-4.37
			C465.51,355.01,465.29,354.98,465.08,354.95z"/>
		<path d="M557.93,433.45c4.54-6.55,9.04-13.13,13.63-19.64c3.61-5.13,4.58-10.76,2.67-16.61c-5.05-15.46-10.35-30.84-15.57-46.24
			c-0.51-1.5-1.14-2.96-1.07-4.77c5.27,7.38,10.55,14.76,15.82,22.14c0.32-0.11,0.65-0.22,0.97-0.33
			c-4.76-17.72-9.53-35.44-14.29-53.16c0.24-0.08,0.48-0.17,0.72-0.25c3.39,8.22,6.79,16.44,10.15,24.67
			c6.98,17.09,13.94,34.19,20.89,51.29c3.86,9.5,2.17,16.01-5.91,22.41c-8.09,6.4-16.23,12.73-24.37,19.07
			c-0.98,0.77-2.09,1.38-3.14,2.06C558.26,433.89,558.09,433.67,557.93,433.45z"/>
		<path d="M387.67,325.27c9.89,8.84,13.59,20.33,13.39,33.32c-0.34,21.43-15.5,39.94-35.28,43.2c-12.96,2.14-26.93-3.52-32.88-13.61
			c0.68,0.22,1.13,0.24,1.41,0.47c18.14,15.31,43.76,9.67,55.44-12.02C399.09,359.3,397.71,342.1,387.67,325.27z"/>
		<path d="M546.57,369.11c18.57,15.67,18.02,48.18-0.92,66.27c-12.7,12.13-31.57,14.24-45.42,4.94c-2.34-1.57-4.31-3.69-5.74-6.44
			c0.67,0.35,1.38,0.62,2,1.05c18.44,12.72,41.87,5.25,52.27-14.12C558.15,403.3,556.81,386.01,546.57,369.11z"/>
		<path d="M435.29,467.06c7.97,6.78,11.12,15.76,12.43,25.69c2.78,21.03-11.37,42.72-31.56,47.75c-10.18,2.54-19.66,0.79-28.59-6.05
			c1.01-0.27,1.5-0.58,1.79-0.45c22.08,10.01,44.01-4.48,50.7-25.46c4.19-13.14,3.23-25.88-3.13-38.17
			C436.36,469.29,435.84,468.17,435.29,467.06z"/>
		<path d="M312.06,402.6c-3.7-14.63-8.1-29.13-10.87-43.93c-2.28-12.16,1.51-23.7,9.74-32.94c6.66-7.47,14.47-13.91,22.22-20.28
			c-6.53,8.96-12.92,18.02-19.64,26.84c-6.07,7.97-7.3,16.8-6.06,26.42c1.87,14.49,3.46,29.01,5.17,43.52
			C312.44,402.36,312.25,402.48,312.06,402.6z"/>
		<path d="M433.55,283.7c-11.66-11.17-13.93-31.21-6.16-46.93c7.2-14.57,21.47-22.67,37.49-20.19
			c-16.39,2.95-26.83,11.61-32.74,25.54C426.38,255.68,427.2,269.29,433.55,283.7z"/>
		<path d="M478.97,408.94c-5.33-7.9-4.02-23.42,3.2-33.1C481.1,386.88,479.99,398.31,478.97,408.94z"/>
		<path d="M319.36,362.43c-4.66-8.85-2.54-24.84,4.29-30.97C322.22,341.8,320.76,352.36,319.36,362.43z"/>
		<path d="M615.23,276.16c-6.6-4.31-13.18-8.5-19.6-12.91c-1.25-0.86-2.18-2.5-2.78-3.97c-11.71-28.83-23.39-57.68-34.93-86.58
			c-0.63-1.58-0.07-3.64-0.07-5.47c1.83,0.33,3.92,0.2,5.44,1.08c7.05,4.05,13.94,8.37,21.29,12.84c-4.13,2.7-3.28,5.78-0.48,7.83
			c4.79,3.49,9.81,6.88,15.21,9.21c2.37,1.02,5.9-0.65,8.9-1.1c0.03-0.53,0.06-1.06,0.08-1.59c13.94,8.42,27.88,16.84,41.81,25.28
			c26.77,16.21,53.46,32.55,80.34,48.58c12.88,7.68,23.21,17.32,30.38,30.82c10.69,20.13,22.4,39.72,33.66,59.55
			c0.3,0.52,0.47,1.12-0.17,2.28c-6.47-8.76-12.93-17.51-19.4-26.27c-0.24,0.12-0.48,0.25-0.72,0.37c0.96,2.73,1.91,5.46,3.39,9.69
			c-12.98-10.9-24.82-20.83-37.08-31.12c1.55,6.02,2.96,11.45,4.36,16.87c-0.26,0.05-0.52,0.1-0.77,0.16
			c-3.8-5.73-7.24-11.74-11.47-17.13c-8.23-10.52-18.85-18.2-30.64-24.41c-2.11-1.11-4-3.31-5.13-5.47
			c-2.08-3.96-3.8-8.17-5.14-12.44c-2.4-7.61-6.16-13.8-14-16.94c-1.38-0.55-2.47-2.54-3.11-4.1c-2.81-6.86-7.22-12.38-13.66-17.77
			c13.89,30.03,13.29,47.22-1.82,53.82c1.33-3.08,2.84-5.74,3.65-8.6c2.49-8.74,0.59-17.2-2.5-25.4
			c-6.37-16.86-16.79-30.64-32.32-40.03c-4.17-2.52-9.1-4.32-13.9-5.15c-10.5-1.82-18.2,4.16-19.9,14.76
			c-1.83,11.39,1.41,21.9,6.78,31.63C605.07,261.96,610.34,268.83,615.23,276.16z"/>
		<path d="M734.73,352.96c-0.19,15.97-8.32,21.92-19.72,17.68c-13.5-5.02-22.24-15.56-29.04-27.61c-3.3-5.85-5.61-12.42-7.33-18.94
			c-1.78-6.76-1.66-13.97,4.71-18.65c6.61-4.86,13.42-2.25,19.64,1.36c11.59,6.73,19.81,16.75,25.51,28.63
			C731.68,342.06,733.48,349.35,734.73,352.96z M726.1,356.14c1.87-14.3-20.13-42.85-31.57-43.73c1.91,2.16,3.67,4.16,6.02,6.81
			c-2.02-0.68-3.04-1.03-4.78-1.61c1.4,2.12,2.33,3.55,3.94,5.99c-2.45-1.08-3.79-1.67-5.94-2.61c7.65,10.6,14.7,20.37,22.51,31.18
			c-0.53-3.33-0.84-5.32-1.23-7.79c1.42,1.35,2.41,2.29,4.07,3.87c-0.43-2.29-0.69-3.64-0.94-5c0.23-0.08,0.47-0.16,0.7-0.25
			C721.24,347.29,723.6,351.58,726.1,356.14z M705.5,355.13c0.63-0.33,1.25-0.65,1.88-0.98c-0.83-1.89-1.3-4.11-2.61-5.55
			c-0.77-0.84-2.89-0.45-4.4-0.62c-0.14,0.44-0.28,0.89-0.42,1.33C701.8,351.24,703.65,353.18,705.5,355.13z"/>
		<path d="M657.13,264.75c-0.12,16.89-9.11,22.74-21.05,17.55c-12.43-5.41-21.17-15.07-27.34-26.7c-3.74-7.06-6.75-14.95-8.03-22.79
			c-2.33-14.31,8.33-21.67,21.61-15.43c12.87,6.05,21.67,16.51,27.9,28.9C653.73,253.27,655.76,261.01,657.13,264.75z
			 M648.78,268.73c-0.03-16.24-18.1-41.05-32.12-44.46c2.15,2.38,4.04,4.47,6.44,7.13c-1.96-0.59-3.07-0.93-5-1.52
			c1.95,2.57,3.33,4.39,5.56,7.33c-3.14-1.81-4.89-2.82-6.64-3.83c3.23,5.52,6.99,10.33,10.56,15.27c3.56,4.93,6.94,10,10.4,15.01
			c0.24-0.14,0.48-0.28,0.72-0.42c-0.46-2.23-0.91-4.47-1.49-7.32c1.55,1.69,2.58,2.82,4.11,4.48c0-1.94,0-3.08,0-5.3
			C644,259.99,646.14,263.89,648.78,268.73z M623.17,259.66c-0.25,0.61-0.5,1.22-0.76,1.84c1.84,1.95,3.69,3.89,5.53,5.84
			c0.53-0.25,1.06-0.51,1.59-0.76c-0.51-1.81-0.55-4.01-1.66-5.31C626.95,260.18,624.78,260.16,623.17,259.66z"/>
		<path d="M815.7,434.05c0.01,13.21-8.26,19.22-19.88,14.79c-4.11-1.57-8.12-3.96-11.5-6.78c-12.73-10.63-21.61-23.8-24.85-40.34
			c-0.38-1.94-0.58-3.96-0.54-5.93c0.23-11.05,8.04-17.01,18.47-13.45c4.76,1.62,9.46,4.31,13.3,7.56
			c12.76,10.82,21.74,24.14,24.65,40.98C815.58,432.18,815.64,433.51,815.7,434.05z M807.38,434.88c1.1-13.9-18.02-41.5-32.03-44.48
			c2.05,2.28,3.81,4.23,6.05,6.72c-1.88-0.31-2.93-0.48-4.42-0.72c1.53,2.11,2.69,3.7,4.55,6.27c-2.77-1.42-4.32-2.22-6.78-3.48
			c7.66,10.64,14.69,20.38,22.46,31.17c-0.45-3.14-0.73-5.11-1.12-7.86c1.45,1.6,2.39,2.65,4.03,4.47c-0.41-2.51-0.65-4.02-0.9-5.54
			c0.21-0.08,0.43-0.16,0.64-0.23C802.28,425.61,804.71,430.02,807.38,434.88z M780.78,427.31c1.89,2.05,3.78,4.1,6.03,6.55
			C788.53,427.92,787.14,426.13,780.78,427.31z"/>
		<path d="M704.19,421.81c-8.03-3.85-16.06-7.7-24.08-11.55c-7.48-3.6-15.19-6.81-22.36-10.96c-4.33-2.51-9.27-5.73-11.42-9.92
			c-5.94-11.57-10.56-23.81-14.7-36.37c24.32,22.71,48.65,45.43,72.97,68.14C704.45,421.38,704.32,421.6,704.19,421.81z"/>
		<path d="M1006.35,351.91c39.87,85.9,75.1,173.66,105.39,263.39C1071.78,529.44,1036.72,441.62,1006.35,351.91z"/>
		<path d="M1163.19,678.78c75.54-18.85,151.97-32.74,229.33-41.47C1317,656.21,1240.55,670.01,1163.19,678.78z"/>
		<path d="M1483.3,619.88c-20.94,7.61-42.57,11.56-65.46,12.46C1426.3,626.46,1465.96,618.86,1483.3,619.88z"/>
		<path d="M1245.11,700.72c-7.09,5.13-14.17,10.26-21.26,15.39c0.09,0.21,0.19,0.43,0.28,0.64c1.09-0.37,2.23-0.66,3.28-1.13
			c11.23-5.05,22.75-9.56,33.59-15.33c14.51-7.73,30.47-9.23,46.08-12.19c43.97-8.34,87.99-16.37,132.02-24.41
			c1.85-0.34,3.91,0.51,5.88,0.81c-0.77,2.15-0.94,4.9-2.4,6.35c-24.36,24.17-48.85,48.21-73.38,72.21
			c-28.7,28.07-57.34,56.21-86.33,83.98c-6.26,5.99-13.9,10.53-20.91,15.74c-0.24-0.32-0.48-0.65-0.72-0.97
			c8.67-10.94,17.33-21.88,26-32.83c-0.39-0.38-0.78-0.76-1.18-1.14c-1.21,1.17-2.36,2.41-3.64,3.5
			c-13.92,11.86-27.56,24.1-41.99,35.3c-4.57,3.55-11.2,4.76-17.08,6.26c-81.42,20.65-162.87,41.16-244.32,61.67
			c-1.44,0.36-3,0.29-5.52,0.51c1.11-1.86,1.47-2.74,2.07-3.4c34.38-38.08,68.77-76.14,103.17-114.21
			c18.65-20.64,37.46-41.13,55.88-61.97c11.18-12.64,24.69-20.24,41.37-23.06c22.31-3.77,44.49-8.24,66.73-12.4
			c0.63-0.12,1.29-0.1,1.94-0.14C1244.8,700.16,1244.95,700.44,1245.11,700.72z M1265.5,770.35c23.64-1.44,58.77-19.56,72.82-37.1
			c1.85-2.31,3.62-4.81,4.85-7.49c3.53-7.74,0.22-14.08-8.21-15.32c-3.88-0.57-8.02-0.44-11.9,0.22
			c-19.76,3.36-37.11,12.25-53.05,24.08c-7.38,5.47-14.41,11.41-18.32,20.03c-3.38,7.46,0.04,13.7,8.1,15.08
			C1262.07,770.23,1264.41,770.26,1265.5,770.35z M1106.9,852.58c1.53-0.16,2.53-0.22,3.52-0.36c25.53-3.59,47.49-14.73,66.44-31.92
			c3.15-2.85,5.92-6.41,7.95-10.14c3.91-7.17,0.67-13.52-7.41-14.67c-3.89-0.56-8.05-0.52-11.91,0.17
			c-23,4.14-43.16,14.42-60.71,29.62c-4.28,3.71-7.85,8.66-10.53,13.69c-3.02,5.66,0.05,11.01,6.26,12.63
			C1102.74,852.19,1105.1,852.32,1106.9,852.58z M1315.45,694.42c0.03,0.31,0.06,0.62,0.09,0.94c27.69-1.61,55.37-3.21,84.31-4.89
			c-10.32,14.62-19.83,28.08-29.34,41.55c1.34-0.04,2.07-0.59,2.72-1.22c15.04-14.86,30.07-29.74,45.11-44.61
			c1.66-1.64,3.54-3.1,4.91-4.96c0.75-1.02,1.29-3.07,0.76-3.94c-0.69-1.13-2.48-1.85-3.93-2.16c-1.21-0.26-2.62,0.27-3.92,0.51
			c-15.86,2.93-31.72,5.85-47.58,8.81C1350.86,687.75,1333.16,691.09,1315.45,694.42z M1065.61,823.33
			c-0.25-0.21-0.51-0.41-0.76-0.62c-23.73,26.3-47.45,52.6-71.18,78.89c0.43,0.73,0.87,1.46,1.3,2.19
			c32.96-8.31,65.92-16.61,98.88-24.92c-0.07-0.36-0.14-0.72-0.21-1.08c-24.84,3.48-49.67,6.96-75.85,10.62
			C1034.35,865.9,1049.98,844.62,1065.61,823.33z M1206.75,713.39c-0.13-0.3-0.27-0.6-0.4-0.9c-7.02,1.26-14.01,2.79-21.07,3.73
			c-19.78,2.63-35.74,11.58-48.34,27.18c-7.42,9.19-15.82,17.58-23.75,26.36c-6.49,7.19-12.93,14.42-19.39,21.63
			c14.32-11.79,28.22-23.94,42.13-36.09c12.95-11.32,26.43-21.75,42.54-28.45C1188.1,722.84,1197.34,717.9,1206.75,713.39z
			 M1081.77,841.8c-2.68,6.66-1.9,11.85,2.14,16.5c5.02,5.78,11.83,8.2,19.11,8.51c34.61,1.47,62.23-12.79,84.18-38.77
			c3.93-4.65,6.29-10.61,9.37-15.97c-0.47-0.31-0.94-0.62-1.41-0.92c-7.97,14.27-20.11,24.18-33.82,32.22
			c-18.6,10.91-38.19,18.9-60.38,17.76C1087.92,860.47,1082.68,855.42,1081.77,841.8z M1248.75,778.52
			c17.6,8.91,35.11,5.88,52.3-0.54c20.99-7.85,37.93-20.57,46.92-41.7C1321.76,766.19,1290.01,782.71,1248.75,778.52z
			 M1283.91,713.29c-14.83,0.84-34.77,18.34-36.27,30.79C1257.25,730.59,1269.47,721.31,1283.91,713.29z"/>
		<path d="M601.72,434.24c-40.15,34.98-82.26,67.42-126.21,97.47C515.71,496.8,557.72,464.24,601.72,434.24z"/>
		<path d="M454.14,548.84c-23.19,22.35-48.28,42.24-75.46,60.56C383.25,600.83,440.57,555.18,454.14,548.84z"/>
		<path d="M636.42,581.02c-4.2-2.05-8.42-4.1-12.64-6.16c-0.16,0.28-0.33,0.55-0.49,0.83c1.81,1.51,3.62,3.03,6.06,5.07
			c-4.65-1.45-8.52-2.66-12.38-3.87c-0.08,0.2-0.16,0.41-0.25,0.61c3.41,2.25,7.15,4.14,10.14,6.85c3.48,3.15,4.32,7.62,2.5,11.95
			c-1.63,3.86-4.06,7.39-6.78,12.19c5.83-2.5,11.07-4.73,16.3-6.97c0.21,0.13,0.42,0.27,0.63,0.4c-2.19,2.27-4.11,4.89-6.62,6.74
			c-11.59,8.53-31.36,6.59-41.4-3.86c-9.44-9.82-7.63-23.49,4.05-30.54C608.66,566.35,628.7,569.66,636.42,581.02z M608.77,588.09
			c-0.62-0.02-1.25-0.05-1.87-0.07c-0.94,1.63-2.73,3.33-2.59,4.86c0.14,1.62,2.12,3.08,3.29,4.61c1.25-1.45,3.31-2.8,3.52-4.39
			C611.33,591.56,609.63,589.77,608.77,588.09z"/>
		<path class="st0" d="M1268.7,346.17c3.24-2.96,6.47-5.93,9.75-8.93c-3.79,1.06-7.69,2.16-11.87,3.33
			c6.58-9.92,21.2-14.12,34.71-10.26c12.78,3.66,24.15,16.7,24.35,27.35c-3.82-3.93-7.93-8.17-12.05-12.42
			c-0.24,0.27-0.48,0.54-0.72,0.82c1.44,5.53,2.88,11.07,4.32,16.6c-0.51,0.41-1.01,0.82-1.52,1.24
			c-9.97-21.19-25.54-26.05-45.95-16.8C1269.38,346.79,1269.04,346.48,1268.7,346.17z"/>
		<path class="st0" d="M1298.14,350.75c-1.49,0.59-3.31,2.01-4.41,1.59c-1.83-0.71-3.21-2.61-4.78-4.01
			c1.38-0.85,2.91-2.56,4.09-2.34c1.9,0.35,3.57,1.98,5.34,3.07C1298.3,349.62,1298.22,350.18,1298.14,350.75z"/>
		<path class="st0" d="M1214.4,446.17c2.91-2.83,5.82-5.65,8.26-8.02c-2.37,0.69-5.84,1.69-9.64,2.79
			c5.44-8.81,18.76-13.49,30.73-11.11c15.12,3.01,26.3,14.24,28.46,27.74c-3.51-3.42-7.63-7.44-11.76-11.45
			c-0.3,0.29-0.59,0.58-0.89,0.87c1.31,5.4,2.61,10.8,3.92,16.2c-0.46,0.38-0.92,0.76-1.38,1.14c-10.1-21.04-25.53-26.5-46.15-16.73
			C1215.42,447.12,1214.91,446.65,1214.4,446.17z"/>
		<path class="st0" d="M1240.03,444.85c1.64,2.39,2.79,4.07,3.95,5.75c-1.45,0.74-3.32,2.43-4.27,2.01
			c-1.77-0.77-3.01-2.77-4.46-4.25C1236.54,447.4,1237.85,446.44,1240.03,444.85z"/>
		<path class="st0" d="M1356.55,524.5c3.16-2.26,6.31-4.52,9.47-6.77c-0.09-0.3-0.18-0.59-0.27-0.89c-3.4,0.93-6.8,1.86-10.51,2.88
			c6.59-9.53,20.51-13.97,32.88-10.79c14.17,3.64,25.15,15.34,26.52,27.66c-3.87-3.78-8.14-7.97-13.32-13.04
			c1.8,7.1,3.21,12.65,4.61,18.19c-0.59,0.28-1.17,0.55-1.76,0.83c-4.15-8.56-9.24-16.14-18.71-19.26
			c-9.46-3.13-18.34-1.52-26.88,3.17C1357.91,525.81,1357.23,525.16,1356.55,524.5z"/>
		<path class="st0" d="M1388.51,528.16c-2.59,1.82-4.13,3.63-4.98,3.36c-2.1-0.68-3.89-2.33-5.8-3.58c1.05-1.02,2.25-2.99,3.14-2.86
			C1383.03,525.39,1385.06,526.68,1388.51,528.16z"/>
		<path class="st0" d="M1169.41,552.71c2.9-2.36,5.8-4.72,8.7-7.08c-0.2-0.31-0.4-0.63-0.61-0.94c-3.13,0.85-6.25,1.69-9.47,2.57
			c4.46-8.4,18.34-13.34,30.73-11.03c14.42,2.68,26.79,15.26,28.12,28c-3.96-3.91-8.32-8.21-13.53-13.35
			c1.92,7.31,3.43,13.06,4.94,18.81c-0.5,0.4-1,0.79-1.5,1.19c-9.94-21.48-25.63-26.27-46.22-16.86
			C1170.19,553.58,1169.8,553.15,1169.41,552.71z"/>
		<path class="st0" d="M1193.51,551.18c2.3,2.18,3.82,3.62,5.33,5.06c-1.2,1.03-2.7,3.13-3.53,2.89c-1.92-0.56-3.52-2.24-5.25-3.46
			C1191,554.44,1191.94,553.22,1193.51,551.18z"/>
		<path class="st0" d="M1132.11,371.31c1.31,5.55,2.63,11.1,3.94,16.65c-0.48,0.11-0.96,0.21-1.43,0.32
			c-15.35-22.09-22.79-24.72-46.01-16.23c-0.63-0.63-1.26-1.26-1.9-1.9c3.27-2.03,6.54-4.06,9.81-6.09
			c-0.25-0.42-0.49-0.84-0.74-1.27c-3.29,0.9-6.59,1.8-10.03,2.75c5.55-9.07,19.52-13.74,32.01-10.86
			c14.25,3.28,25.79,15.38,27.15,28.66c-4.14-4.52-8.17-8.92-12.2-13.32C1132.5,370.45,1132.31,370.88,1132.11,371.31z"/>
		<path class="st0" d="M1118.69,374.14c-2.65,1.79-4.17,3.52-5.01,3.24c-2.08-0.7-3.84-2.33-5.73-3.58c1.04-1.03,2.25-3.02,3.1-2.89
			C1113.21,371.27,1115.21,372.58,1118.69,374.14z"/>
		<path class="st0" d="M845.71,545.48c4.45-9,9.34-17.35,12.76-26.27c3.33-8.69,8.59-12.9,17.87-14.43
			c12.25-2.02,24.22-5.75,36.48-8.79c2.38,7.24,4.67,14.25,6.87,20.97c-4.74,1.27-9.91,2.17-14.69,4.08
			c-5.32,2.12-5.62,4.95-0.94,8.16c4.73,3.25,9.94,5.78,16.05,9.27c-3.42-0.35-5.95-0.12-8.08-0.92c-8.81-3.3-17.35-0.97-25.96,0.72
			c-12.57,2.47-25.14,4.93-37.71,7.36C847.76,545.75,847.09,545.57,845.71,545.48z"/>
		<path class="st0" d="M954.85,591.07c2.3,0,4.57,0,6.83,0c0.29-0.3,0.58-0.61,0.88-0.91c-3.11-2.81-6.21-5.62-9.21-8.33
			c3.03-2.58,6.51-2.53,9.21,2.17c2.77,4.81,5.13,10.18,6.17,15.59c2.99,15.49,1.74,30.87-4.04,45.63c-1.61,4.11-4,8.1-6.78,11.54
			c-4.8,5.96-9.94,5.46-13.94-1.14c-1.7-2.8-2.92-5.98-3.89-9.13c-3.02-9.85-3.15-19.93-1.33-30.14c1.1,7.43,2.19,14.85,3.29,22.28
			c0.5-0.03,0.99-0.06,1.49-0.09c0-6.35,0-12.69,0-19.04c0.26,0.01,0.52,0.03,0.77,0.04c2.1,9.87,4.2,19.73,6.52,30.65
			c4.85-4.01,7.24-6.52,5.67-12.19c-3.05-10.95-2.9-21.81,3.57-32.23c1.4-2.26-1.27-7.18-2.37-10.78
			C957.29,593.67,956.01,592.62,954.85,591.07z"/>
		<path class="st0" d="M928.96,761.6c1.21,8.12,2.41,16.25,3.62,24.37c0.38-0.05,0.77-0.09,1.15-0.14c0-6.89,0-13.78,0-20.67
			c0.26-0.02,0.53-0.04,0.79-0.06c2.11,9.82,4.21,19.64,6.47,30.14c5.33-3.83,7.15-6.75,5.56-12.47
			c-3.01-10.8-2.62-21.52,3.77-31.75c1.39-2.22-1.3-7.16-2.46-10.73c-0.4-1.24-1.88-2.13-3.39-3.74c2.86,0,5.04,0,7.22,0
			c0.33-0.35,0.67-0.7,1-1.05c-3.13-2.85-6.27-5.7-9.2-8.36c3.37-2.37,6.79-2.33,9.29,2.36c3,5.62,5.67,11.8,6.69,18.03
			c2.54,15.56,0.8,30.92-5.64,45.46c-1.58,3.58-3.93,7-6.57,9.89c-4.48,4.9-9.03,4.87-12.15-0.96c-3.23-6.02-5.56-12.85-6.66-19.58
			c-1.12-6.78-0.25-13.89-0.25-20.86C928.44,761.53,928.7,761.56,928.96,761.6z"/>
		<path class="st0" d="M944.35,468.09c2.07,9.76,4.14,19.52,6.42,30.27c4.98-3.95,7.27-6.52,5.71-12.16
			c-3.03-10.96-2.9-21.82,3.64-32.21c1.4-2.23-1.28-7.19-2.45-10.78c-0.4-1.23-1.95-2.08-3.5-3.63c2.88,0,5.2,0,7.52,0
			c0.29-0.33,0.59-0.66,0.88-0.99c-3.04-2.88-6.08-5.75-9.3-8.79c2.12-2.12,5.31-2,7.7,0.83c2.41,2.86,4.73,6.2,5.78,9.73
			c6,20.11,4.52,39.79-4.71,58.7c-1.42,2.91-3.65,5.61-6.02,7.84c-3.58,3.36-7.18,2.97-10.38-0.81c-1.48-1.75-2.68-3.81-3.67-5.9
			c-4.26-9-5.79-25.15-3.31-36.4c1.2,8.27,2.28,15.7,3.36,23.14c0.52-0.03,1.04-0.06,1.56-0.08c0-6.28,0-12.55,0-18.83
			C943.85,468.03,944.1,468.06,944.35,468.09z"/>
		<path class="st0" d="M461.5,238.46c4.56,12.69-0.7,22.94-13.46,26.12c1.49,5.99,2.99,11.99,4.57,18.33
			c-8.32-7.61-10.62-17.14-9.35-27.56c1.17-9.55,5.53-17.52,14.69-21.75c5.97-2.76,11.83-1.96,17.48,2.22
			C470.68,236.72,466.36,237.54,461.5,238.46z"/>
		<path class="st0" d="M463.45,270.7c-2.64,2.22-4.31,3.64-5.99,5.05c-1.21-1.73-3.47-3.53-3.37-5.18c0.12-1.87,2.35-3.61,3.66-5.41
			C459.34,266.71,460.93,268.25,463.45,270.7z"/>
		<path class="st0" d="M504.16,420.52c-8.81-8.98-11.52-19.25-8.91-30.84c2.17-9.59,7.15-17.07,17.34-19.9
			c5.05-1.4,9.41,0.07,14.38,3.11c-5.08,1.04-9.42,1.93-13.82,2.83c4.18,13.02-1.2,23.45-13.73,25.9
			C500.94,407.65,502.44,413.65,504.16,420.52z"/>
		<path class="st0" d="M514.93,407.94c-2.73,2.2-4.42,3.55-6.11,4.91c-1.22-1.89-3.35-3.77-3.37-5.67
			c-0.01-1.61,2.42-3.24,3.77-4.87C510.79,403.86,512.36,405.41,514.93,407.94z"/>
		<path class="st0" d="M413.98,469.18c-4.3,0.8-8.58,1.6-11.37,2.11c-0.74,6.35-0.58,11.8-2.15,16.71
			c-1.74,5.46-6.35,8.71-13.32,9.46c1.48,6.16,2.89,12.02,4.43,18.43c-4.66-4.04-7.28-8.88-8.52-14.5
			c-2.56-11.64-0.54-22.21,8.19-30.77C398.09,463.91,407.51,463.47,413.98,469.18z"/>
		<path class="st0" d="M393.11,503.93c2.57-2.53,4.14-4.08,5.72-5.63c1.35,1.81,3.6,3.54,3.76,5.44c0.13,1.6-2.2,3.39-3.44,5.1
			C397.48,507.49,395.8,506.12,393.11,503.93z"/>
		<path class="st0" d="M367.57,329.11c-4.83,0.93-9.14,1.76-13.52,2.6c4.11,13.33-1.13,23.47-13.69,26
			c1.51,6.04,3.01,12.04,4.65,18.56c-5.25-4.59-7.84-10.33-9.16-16.83c-2.43-11.97,2.37-24.92,11.46-30.96
			C353.84,324.14,360.5,324.27,367.57,329.11z"/>
		<path class="st0" d="M344.46,363.58c2.48-2.19,4.13-3.63,5.77-5.08c1.23,1.71,3.53,3.49,3.42,5.1c-0.13,1.85-2.41,3.54-3.75,5.3
			C348.41,367.44,346.92,365.98,344.46,363.58z"/>
		<path class="st0" d="M726.1,356.14c-2.5-4.56-4.86-8.85-7.22-13.14c-0.23,0.08-0.47,0.16-0.7,0.25c0.26,1.36,0.51,2.71,0.94,5
			c-1.66-1.58-2.65-2.52-4.07-3.87c0.39,2.47,0.71,4.46,1.23,7.79c-7.81-10.82-14.85-20.58-22.51-31.18
			c2.14,0.94,3.49,1.53,5.94,2.61c-1.61-2.45-2.54-3.87-3.94-5.99c1.74,0.59,2.76,0.93,4.78,1.61c-2.34-2.65-4.1-4.65-6.02-6.81
			C705.97,313.29,727.97,341.84,726.1,356.14z"/>
		<path class="st0" d="M705.5,355.13c-1.85-1.94-3.7-3.88-5.55-5.82c0.14-0.44,0.28-0.89,0.42-1.33c1.51,0.17,3.63-0.22,4.4,0.62
			c1.32,1.45,1.79,3.66,2.61,5.55C706.75,354.47,706.12,354.8,705.5,355.13z"/>
		<path class="st0" d="M648.78,268.73c-2.65-4.83-4.79-8.73-7.46-13.62c0,2.22,0,3.35,0,5.3c-1.52-1.66-2.56-2.79-4.11-4.48
			c0.58,2.85,1.04,5.09,1.49,7.32c-0.24,0.14-0.48,0.28-0.72,0.42c-3.46-5.01-6.83-10.08-10.4-15.01
			c-3.57-4.94-7.34-9.75-10.56-15.27c1.75,1.01,3.49,2.02,6.64,3.83c-2.23-2.94-3.61-4.76-5.56-7.33c1.93,0.59,3.04,0.92,5,1.52
			c-2.4-2.66-4.3-4.76-6.44-7.13C630.69,227.67,648.76,252.49,648.78,268.73z"/>
		<path class="st0" d="M623.17,259.66c1.61,0.49,3.78,0.52,4.7,1.61c1.11,1.3,1.15,3.5,1.66,5.31c-0.53,0.25-1.06,0.51-1.59,0.76
			c-1.84-1.95-3.69-3.89-5.53-5.84C622.66,260.88,622.92,260.27,623.17,259.66z"/>
		<path class="st0" d="M807.38,434.88c-2.67-4.86-5.1-9.27-7.53-13.68c-0.21,0.08-0.43,0.16-0.64,0.23c0.25,1.52,0.49,3.03,0.9,5.54
			c-1.64-1.82-2.58-2.86-4.03-4.47c0.39,2.75,0.67,4.72,1.12,7.86c-7.77-10.78-14.79-20.53-22.46-31.17
			c2.46,1.26,4.01,2.06,6.78,3.48c-1.86-2.56-3.02-4.16-4.55-6.27c1.5,0.24,2.54,0.41,4.42,0.72c-2.24-2.49-4-4.45-6.05-6.72
			C789.36,393.38,808.49,420.98,807.38,434.88z"/>
		<path class="st0" d="M780.78,427.31c6.35-1.18,7.75,0.61,6.03,6.55C784.56,431.41,782.67,429.36,780.78,427.31z"/>
		<path class="st0" d="M1265.5,770.35c-1.09-0.09-3.43-0.12-5.71-0.51c-8.06-1.38-11.48-7.62-8.1-15.08
			c3.91-8.62,10.94-14.56,18.32-20.03c15.94-11.83,33.29-20.71,53.05-24.08c3.88-0.66,8.02-0.79,11.9-0.22
			c8.44,1.24,11.75,7.58,8.21,15.32c-1.22,2.68-2.99,5.18-4.85,7.49C1324.27,750.79,1289.13,768.91,1265.5,770.35z M1265.02,764.82
			c1.33-0.11,2.66-0.14,3.97-0.34c21.46-3.32,40.07-12.91,56.61-26.55c4.89-4.03,8.92-9.35,12.48-14.66
			c2.57-3.83,0.78-6.82-3.89-7.28c-3.92-0.39-8.06-0.43-11.89,0.37c-20.25,4.23-38.2,13.42-53.88,26.78
			c-4.46,3.8-8.24,8.67-11.44,13.62c-2.7,4.18-0.95,6.74,4.07,7.63C1262.35,764.63,1263.69,764.69,1265.02,764.82z"/>
		<path class="st0" d="M1106.9,852.58c-1.79-0.26-4.15-0.39-6.39-0.98c-6.21-1.63-9.28-6.97-6.26-12.63
			c2.68-5.03,6.25-9.98,10.53-13.69c17.56-15.2,37.72-25.48,60.71-29.62c3.87-0.7,8.02-0.73,11.91-0.17
			c8.07,1.15,11.32,7.5,7.41,14.67c-2.03,3.73-4.81,7.28-7.95,10.14c-18.96,17.19-40.91,28.33-66.44,31.92
			C1109.42,852.36,1108.43,852.43,1106.9,852.58z M1171.52,799.75c-0.1,0.28-0.2,0.55-0.31,0.83c-0.66,0.06-1.33,0.1-1.99,0.19
			c-21.69,2.94-40.49,12.49-57.51,25.74c-4.26,3.31-8.03,7.51-11.2,11.9c-3.62,5.01-1.9,7.93,4.36,8.39
			c2.63,0.19,5.41,0.23,7.93-0.4c7.38-1.87,14.91-3.51,21.94-6.35c15.82-6.39,30.74-14.48,42.03-27.73
			c2.03-2.39,2.48-6.12,3.66-9.24C1177.47,801.97,1174.49,800.86,1171.52,799.75z"/>
		<path class="st0" d="M1315.45,694.42c17.71-3.32,35.41-6.66,53.12-9.97c15.85-2.96,31.72-5.88,47.58-8.81
			c1.31-0.24,2.71-0.77,3.92-0.51c1.44,0.31,3.23,1.03,3.93,2.16c0.53,0.87-0.01,2.92-0.76,3.94c-1.37,1.85-3.25,3.32-4.91,4.96
			c-15.04,14.87-30.07,29.75-45.11,44.61c-0.65,0.64-1.38,1.18-2.72,1.22c9.51-13.47,19.01-26.93,29.34-41.55
			c-28.93,1.68-56.62,3.28-84.31,4.89C1315.51,695.04,1315.48,694.73,1315.45,694.42z"/>
		<path class="st0" d="M1065.61,823.33c-15.63,21.28-31.26,42.56-47.8,65.1c26.17-3.67,51.01-7.14,75.85-10.62
			c0.07,0.36,0.14,0.72,0.21,1.08c-32.96,8.31-65.92,16.61-98.88,24.92c-0.43-0.73-0.87-1.46-1.3-2.19
			c23.73-26.3,47.45-52.6,71.18-78.89C1065.1,822.92,1065.35,823.13,1065.61,823.33z"/>
		<path class="st0" d="M1206.75,713.39c-9.41,4.51-18.65,9.45-28.28,13.45c-16.12,6.7-29.59,17.13-42.54,28.45
			c-13.91,12.15-27.81,24.3-42.13,36.09c6.46-7.21,12.9-14.44,19.39-21.63c7.93-8.78,16.33-17.17,23.75-26.36
			c12.59-15.6,28.56-24.55,48.34-27.18c7.06-0.94,14.05-2.47,21.07-3.73C1206.48,712.79,1206.61,713.09,1206.75,713.39z"/>
		<path class="st0" d="M1081.77,841.8c0.91,13.62,6.16,18.68,19.19,19.34c22.19,1.13,41.78-6.86,60.38-17.76
			c13.71-8.04,25.85-17.95,33.82-32.22c0.47,0.31,0.94,0.62,1.41,0.92c-3.08,5.36-5.45,11.32-9.37,15.97
			c-21.94,25.98-49.56,40.23-84.18,38.77c-7.28-0.31-14.09-2.73-19.11-8.51C1079.87,853.65,1079.09,848.45,1081.77,841.8z"/>
		<path class="st0" d="M1248.75,778.52c41.26,4.19,73.01-12.33,99.22-42.24c-8.98,21.12-25.93,33.85-46.92,41.7
			C1283.87,784.41,1266.35,787.43,1248.75,778.52z"/>
		<path class="st0" d="M1283.91,713.29c-14.44,8.02-26.66,17.3-36.27,30.79C1249.14,731.63,1269.09,714.13,1283.91,713.29z"/>
		<path class="st0" d="M608.77,588.09c0.86,1.68,2.55,3.47,2.35,5.01c-0.22,1.59-2.27,2.94-3.52,4.39
			c-1.17-1.53-3.15-2.99-3.29-4.61c-0.14-1.53,1.65-3.24,2.59-4.86C607.52,588.04,608.15,588.06,608.77,588.09z"/>
		<path d="M1265.02,764.82c-1.33-0.14-2.67-0.19-3.97-0.42c-5.01-0.9-6.76-3.45-4.07-7.63c3.19-4.96,6.98-9.82,11.44-13.62
			c15.68-13.36,33.63-22.55,53.88-26.78c3.83-0.8,7.97-0.77,11.89-0.37c4.67,0.47,6.47,3.45,3.89,7.28
			c-3.56,5.31-7.59,10.63-12.48,14.66c-16.53,13.63-35.15,23.23-56.61,26.55C1267.69,764.68,1266.35,764.71,1265.02,764.82z
			 M1270.43,754.23c18.16,3.54,47.72-10.73,57.1-27.31c-4.27,2.98-8.08,5.63-11.89,8.28c-0.19-0.21-0.37-0.42-0.56-0.63
			c1.6-2.57,3.2-5.15,4.8-7.72c-0.32-0.27-0.64-0.54-0.96-0.81c-12.43,14.02-28.74,19.95-46.56,23.54
			c3.85,0.18,7.71,0.35,11.56,0.53c0.04,0.24,0.08,0.47,0.13,0.71C1279.51,751.95,1274.97,753.09,1270.43,754.23z"/>
		<path d="M1171.52,799.75c2.97,1.11,5.95,2.21,8.92,3.32c-1.18,3.11-1.62,6.85-3.66,9.24c-11.29,13.25-26.21,21.34-42.03,27.73
			c-7.03,2.84-14.56,4.47-21.94,6.35c-2.52,0.64-5.3,0.6-7.93,0.4c-6.27-0.46-7.98-3.38-4.36-8.39c3.17-4.39,6.94-8.58,11.2-11.9
			c17.02-13.25,35.82-22.8,57.51-25.74c0.66-0.09,1.32-0.13,1.99-0.19C1171.31,800.31,1171.41,800.03,1171.52,799.75z
			 M1161.85,811.07c-13.29,12.36-29.45,18.03-46.79,21.83c3.43,0.19,6.86,0.37,10.29,0.56c0.03,0.2,0.06,0.4,0.08,0.6
			c-4.38,1.1-8.76,2.21-13.99,3.52c18.77,3.33,50.97-11.73,57.4-26.32c-3.84,2.6-7.58,5.13-11.32,7.66
			c-0.15-0.18-0.29-0.37-0.44-0.55C1158.68,815.93,1160.26,813.5,1161.85,811.07z"/>
		<path class="st0" d="M1270.43,754.23c4.54-1.14,9.08-2.27,13.62-3.41c-0.04-0.24-0.08-0.47-0.13-0.71
			c-3.85-0.18-7.71-0.35-11.56-0.53c17.82-3.58,34.13-9.52,46.56-23.54c0.32,0.27,0.64,0.54,0.96,0.81c-1.6,2.57-3.2,5.15-4.8,7.72
			c0.19,0.21,0.37,0.42,0.56,0.63c3.81-2.65,7.62-5.31,11.89-8.28C1318.15,743.49,1288.59,757.77,1270.43,754.23z"/>
		<path class="st0" d="M1161.85,811.07c-1.59,2.43-3.17,4.86-4.76,7.29c0.15,0.18,0.29,0.37,0.44,0.55
			c3.74-2.53,7.48-5.06,11.32-7.66c-6.43,14.59-38.64,29.65-57.4,26.32c5.23-1.32,9.61-2.42,13.99-3.52c-0.03-0.2-0.06-0.4-0.08-0.6
			c-3.43-0.19-6.86-0.37-10.29-0.56C1132.4,829.1,1148.56,823.43,1161.85,811.07z"/>
	</g>
</g>
</svg>
